<svg xmlns="http://www.w3.org/2000/svg" viewBox="0 0 20 18"><g fill="none"><path fill="url(#a)" d="M19.734 8.156 15.576.844A1.66 1.66 0 0 0 14.135 0H5.819C5.226 0 4.677.32 4.38.844L.222 8.156a1.71 1.71 0 0 0 0 1.688l4.158 7.312c.297.523.846.844 1.439.844h8.316c.593 0 1.142-.32 1.438-.844l4.158-7.312c.3-.523.3-1.165.003-1.688"/><g shape-rendering="geometricPrecision"><path fill="#7080a2" d="m10 5.5 3.031 1.75L10 9 6.969 7.25z"/><path fill="#54607a" d="M6.969 7.25 10 9v3.5l-3.031-1.75z"/><path fill="#4e5a72" d="m10 9 3.031-1.75v3.5L10 12.5z"/></g><defs><radialGradient id="a" cx="0" cy="0" r="1" gradientTransform="matrix(-19.9562 0 0 -18 19.956 18)" gradientUnits="userSpaceOnUse"><stop stop-color="#ec991c"/><stop offset="1" stop-color="#e9b213"/></radialGradient></defs></g></svg>