<?xml version="1.0" encoding="UTF-8"?>
<!-- Generator: visioncortex VTracer 0.6.12 -->
<svg version="1.1" xmlns="http://www.w3.org/2000/svg" width="314" height="314">
<path d="M0 0 C3.562 3.103 6.97 6.354 10.369 9.634 C11.221 10.423 12.073 11.212 12.951 12.025 C40.267 38.007 56.358 77.756 57.654 115.169 C57.918 128.577 57.266 141.528 54.369 154.634 C54.296 154.964 54.296 154.964 53.931 156.63 C49.103 177.85 40.047 198.623 26.369 215.634 C25.661 216.543 24.953 217.452 24.224 218.388 C10.555 235.601 -6.093 248.704 -25.631 258.634 C-26.706 259.186 -27.782 259.738 -28.889 260.306 C-47.671 269.438 -68.733 274.908 -89.631 275.634 C-90.443 275.674 -91.256 275.714 -92.092 275.755 C-131.505 276.786 -171.804 261.57 -200.511 234.595 C-201.889 233.279 -203.26 231.957 -204.631 230.634 C-205.348 229.969 -206.065 229.304 -206.803 228.619 C-232.77 203.898 -248.422 165.17 -249.631 129.634 C-249.651 129.075 -249.651 129.075 -249.752 126.244 C-250.465 86.156 -235.755 47.826 -209.631 17.634 C-209.272 17.208 -209.272 17.208 -207.456 15.052 C-202.059 8.812 -196.191 3.624 -189.631 -1.366 C-189.099 -1.773 -188.566 -2.181 -188.018 -2.601 C-133.391 -44.077 -53.185 -44.525 0 0 Z " fill="#F96D00" transform="translate(252.63134765625,35.36572265625)"/>
<path d="M0 0 C3.562 3.103 6.97 6.354 10.369 9.634 C11.221 10.423 12.073 11.212 12.951 12.025 C40.267 38.007 56.358 77.756 57.654 115.169 C57.918 128.577 57.266 141.528 54.369 154.634 C54.296 154.964 54.296 154.964 53.931 156.63 C49.103 177.85 40.047 198.623 26.369 215.634 C25.661 216.543 24.953 217.452 24.224 218.388 C10.555 235.601 -6.093 248.704 -25.631 258.634 C-26.706 259.186 -27.782 259.738 -28.889 260.306 C-47.671 269.438 -68.733 274.908 -89.631 275.634 C-90.443 275.674 -91.256 275.714 -92.092 275.755 C-131.505 276.786 -171.804 261.57 -200.511 234.595 C-201.889 233.279 -203.26 231.957 -204.631 230.634 C-205.348 229.969 -206.065 229.304 -206.803 228.619 C-232.77 203.898 -248.422 165.17 -249.631 129.634 C-249.651 129.075 -249.651 129.075 -249.752 126.244 C-250.465 86.156 -235.755 47.826 -209.631 17.634 C-209.272 17.208 -209.272 17.208 -207.456 15.052 C-202.059 8.812 -196.191 3.624 -189.631 -1.366 C-189.099 -1.773 -188.566 -2.181 -188.018 -2.601 C-133.391 -44.077 -53.185 -44.525 0 0 Z M-204.631 23.759 C-231.99 54.548 -242.93 95.052 -240.942 135.574 C-239.961 150.595 -235.674 164.942 -229.631 178.634 C-229.102 179.901 -228.573 181.168 -228.045 182.435 C-223.162 193.483 -217.177 203.192 -209.631 212.634 C-209.29 213.083 -209.29 213.083 -207.565 215.353 C-202.775 221.577 -197.52 226.465 -191.456 231.408 C-187.378 234.822 -184.617 237.546 -182.631 242.634 C-182.301 241.974 -181.971 241.314 -181.631 240.634 C-176.381 243.449 -171.188 246.257 -166.194 249.509 C-153.646 257.09 -138.965 261.842 -124.631 264.634 C-123.792 264.809 -122.953 264.983 -122.088 265.163 C-113.323 266.829 -104.645 267.074 -95.756 267.072 C-95.372 267.072 -95.372 267.072 -93.426 267.075 C-80.276 267.049 -68.219 265.631 -55.631 261.634 C-54.873 261.404 -54.114 261.174 -53.333 260.938 C-42.55 257.628 -32.542 252.989 -22.631 247.634 C-21.663 247.126 -20.695 246.618 -19.698 246.095 C-19.357 245.854 -19.357 245.854 -17.631 244.634 C-17.319 241.447 -17.319 241.447 -17.631 238.634 C-16.868 238.552 -16.105 238.469 -15.319 238.384 C-12.631 237.634 -12.631 237.634 -10.999 236.208 C-8.852 232.166 -9.079 228.205 -9.069 223.697 C-9.032 222.803 -8.995 221.909 -8.958 220.988 C-8.955 220.554 -8.955 220.554 -8.94 218.357 C-8.928 217.571 -8.915 216.784 -8.903 215.974 C-9.792 213.119 -11.182 211.559 -13.508 209.709 C-18.218 207.325 -23.732 207.94 -28.889 207.975 C-30.239 207.966 -31.59 207.956 -32.941 207.943 C-36.595 207.915 -40.249 207.917 -43.904 207.925 C-47.728 207.929 -51.551 207.903 -55.375 207.881 C-62.61 207.844 -69.845 207.832 -77.081 207.829 C-85.32 207.824 -93.56 207.791 -101.799 207.756 C-118.743 207.684 -135.687 207.647 -152.631 207.634 C-151.947 207.58 -151.263 207.526 -150.558 207.47 C-149.659 207.392 -148.761 207.313 -147.834 207.232 C-146.944 207.157 -146.054 207.083 -145.136 207.006 C-140.652 206.341 -137.903 204.263 -135.147 200.732 C-134.137 199.334 -133.133 197.932 -132.135 196.525 C-130.027 193.874 -127.522 192.356 -124.631 190.634 C-121.38 188.334 -119.491 186.423 -117.569 183.009 C-115.893 180.55 -115.089 179.755 -112.174 178.986 C-110.159 178.743 -108.142 178.515 -106.124 178.298 C-99.496 177.038 -93.601 173.684 -87.631 170.634 C-87.678 171.287 -87.724 171.939 -87.772 172.611 C-88.017 178.536 -87.71 181.989 -83.631 186.634 C-79.865 189.948 -77.231 190.228 -72.331 190.021 C-60.317 188.3 -52.215 178.085 -44.694 169.396 C-41.412 164.893 -40.938 160.641 -41.206 155.126 C-41.941 150.82 -44.012 148.849 -47.381 146.322 C-50.828 145.268 -54.036 145.514 -57.631 145.634 C-57.642 145.346 -57.642 145.346 -57.694 143.884 C-59.208 140.25 -62.191 139.386 -65.631 137.634 C-65.936 134.841 -65.936 134.841 -65.631 131.634 C-63.577 129.833 -63.577 129.833 -60.756 128.322 C-54.63 124.751 -49.736 120.526 -44.631 115.634 C-43.92 114.986 -43.208 114.337 -42.475 113.669 C-35.413 107.028 -29.82 98.825 -26.631 89.634 C-26.631 88.314 -26.631 86.994 -26.631 85.634 C-28.941 84.974 -31.251 84.314 -33.631 83.634 C-33.644 83.333 -33.644 83.333 -33.709 81.806 C-33.977 78.035 -34.168 75.346 -36.256 72.134 C-39.472 70.103 -41.837 69.701 -45.631 69.634 C-48.569 71.072 -48.569 71.072 -50.631 72.634 C-50.676 72.298 -50.676 72.298 -50.905 70.599 C-51.99 66.17 -54.169 62.266 -56.28 58.25 C-57.705 55.372 -58.616 52.975 -58.764 49.755 C-57.011 44.924 -53.994 41.186 -50.881 37.134 C-50.26 36.305 -49.639 35.477 -48.999 34.623 C-47.782 33.008 -46.55 31.404 -45.301 29.814 C-43.631 27.634 -43.631 27.634 -42.415 25.705 C-40.829 23.331 -39.442 21.798 -36.591 21.222 C-33.894 21.163 -31.315 21.359 -28.631 21.634 C-28.089 21.682 -28.089 21.682 -25.343 21.923 C-21.787 22.262 -18.242 22.659 -14.694 23.072 C-13.476 23.206 -12.259 23.341 -11.004 23.48 C-2.04 24.498 -2.04 24.498 1.369 25.634 C2.103 27.61 2.748 29.62 3.369 31.634 C4.877 35.283 6.525 38.863 8.181 42.447 C8.607 43.413 9.033 44.379 9.472 45.375 C9.898 46.292 10.324 47.209 10.763 48.154 C10.953 48.572 10.953 48.572 11.915 50.688 C13.369 52.634 13.369 52.634 18.369 53.634 C18.369 57.264 18.369 60.894 18.369 64.634 C20.019 64.304 21.669 63.974 23.369 63.634 C23.142 62.912 22.915 62.191 22.681 61.447 C22.285 57.878 23.325 56.496 25.369 53.634 C24.379 52.974 23.389 52.314 22.369 51.634 C23.029 50.974 23.689 50.314 24.369 49.634 C27.494 50.009 27.494 50.009 30.369 50.634 C28.808 46.158 26.429 42.361 23.806 38.447 C23.365 37.786 22.924 37.126 22.469 36.445 C19.106 31.506 15.42 27.042 11.31 22.697 C9.369 20.634 9.369 20.634 6.994 17.572 C2.923 13.016 -1.829 9.391 -6.631 5.634 C-7.585 4.876 -8.539 4.118 -9.522 3.337 C-21.141 -5.672 -32.893 -11.918 -46.723 -16.691 C-48.726 -17.399 -50.702 -18.166 -52.682 -18.936 C-56.22 -20.269 -59.733 -21.172 -63.444 -21.928 C-64.543 -22.156 -65.643 -22.385 -66.776 -22.62 C-68.048 -22.866 -69.32 -23.112 -70.631 -23.366 C-71.456 -23.539 -72.281 -23.711 -73.131 -23.889 C-121.777 -33.6 -171.559 -11.122 -204.631 23.759 Z " fill="#FA7100" transform="translate(252.63134765625,35.36572265625)"/>
<path d="M0 0 C8.154 3.893 11.838 13.032 15 21 C16.279 25.299 17.236 29.583 18 34 C18.187 34.941 18.374 35.882 18.566 36.852 C19.099 40.72 19.108 44.477 19.062 48.375 C19.058 49.111 19.053 49.847 19.049 50.605 C19.037 52.404 19.019 54.202 19 56 C19.887 56.248 20.774 56.495 21.688 56.75 C30.789 60.184 36.848 68.523 41 77 C42.935 81.487 43.195 85.127 43 90 C43.66 90 44.32 90 45 90 C46.444 87.195 47.68 84.356 48.875 81.438 C51.61 75.356 51.61 75.356 55 74 C58.771 74.067 61.176 74.479 64.375 76.5 C66.74 80.138 66.818 83.735 67 88 C69.31 88.66 71.62 89.32 74 90 C73.439 102.616 64.313 111.479 56 120 C55.415 120.659 54.83 121.317 54.227 121.996 C51.56 124.927 48.84 127.154 45.461 129.211 C44.822 129.601 44.183 129.99 43.525 130.392 C42.237 131.16 40.936 131.907 39.622 132.63 C37.816 133.691 37.816 133.691 35 136 C34.59 139.277 34.59 139.277 35 142 C36.134 142.577 37.269 143.155 38.438 143.75 C41.87 145.688 41.87 145.688 42.938 148.25 C42.958 148.827 42.979 149.405 43 150 C44.196 149.917 45.392 149.835 46.625 149.75 C51.097 149.742 53.536 151.113 57 154 C60.029 158.544 59.882 162.685 59 168 C54.342 178.103 43.661 188.835 33.48 193.254 C28.637 194.711 23.733 195.434 19.109 193.008 C16.217 190.747 14.335 188.38 13 185 C12.805 182.422 12.805 182.422 12.875 179.75 C12.893 178.858 12.911 177.966 12.93 177.047 C12.953 176.371 12.976 175.696 13 175 C12.056 175.482 11.113 175.964 10.141 176.461 C-1.5 182.235 -1.5 182.235 -8.5 182.875 C-11.877 183.285 -13.469 183.492 -15.945 185.863 C-17.075 187.427 -18.168 189.018 -19.223 190.633 C-21.237 193.315 -23.253 194.751 -26.062 196.562 C-30.257 199.289 -32.879 201.989 -35.551 206.203 C-38.158 209.436 -40.851 210.83 -44.938 211.434 C-53.234 211.444 -53.234 211.444 -57.125 209.188 C-61.399 204.201 -61.476 200.835 -61.391 194.438 C-60.612 187.583 -57.141 182.355 -53 177 C-53.866 177.052 -54.733 177.103 -55.625 177.156 C-62.678 176.83 -69.946 172.772 -74.75 167.625 C-78.217 162.464 -77.353 156.356 -77.016 150.414 C-77.01 149.287 -77.005 148.161 -77 147 C-77.66 146.34 -78.32 145.68 -79 145 C-79.879 137.214 -77.876 130.794 -74 124 C-71.396 121.57 -70.618 121 -67 121 C-66.925 120.443 -66.85 119.886 -66.773 119.312 C-65.693 113.043 -63.6 108.474 -59 104 C-54.997 101.4 -50.652 100.725 -46 100 C-46.046 98.973 -46.093 97.945 -46.141 96.887 C-46.384 89.054 -46.186 82.645 -42.973 75.332 C-41.008 70.622 -41.008 70.622 -41 68 C-42.888 65.795 -44.615 64.097 -46.812 62.25 C-47.407 61.726 -48.001 61.203 -48.614 60.663 C-50.397 59.094 -52.197 57.547 -54 56 C-73.232 39.116 -73.232 39.116 -74.312 29.105 C-74.502 24.315 -74.412 20.887 -72.375 16.5 C-68.055 11.953 -64.964 9.763 -58.625 9.5 C-49.081 9.95 -43.355 14.605 -36.945 21.465 C-28.82 30.776 -22.9 42.206 -17 53 C-14.69 53 -12.38 53 -10 53 C-12.312 45.108 -14.899 37.416 -17.949 29.777 C-20.617 22.727 -21.925 13.735 -19.023 6.598 C-14.239 -0.344 -7.943 -1.357 0 0 Z " fill="#30CC62" transform="translate(152,31)"/>
<path d="M0 0 C0.334 -0.002 0.334 -0.002 2.022 -0.013 C4.268 -0.027 6.514 -0.033 8.76 -0.039 C10.367 -0.047 11.973 -0.055 13.579 -0.064 C18.864 -0.09 24.148 -0.105 29.433 -0.12 C31.251 -0.125 33.07 -0.13 34.888 -0.136 C42.451 -0.157 50.013 -0.176 57.576 -0.187 C68.419 -0.204 79.262 -0.237 90.105 -0.294 C97.727 -0.332 105.348 -0.352 112.969 -0.357 C117.522 -0.361 122.075 -0.373 126.628 -0.405 C130.913 -0.435 135.197 -0.442 139.482 -0.43 C141.053 -0.43 142.625 -0.438 144.196 -0.456 C146.345 -0.478 148.491 -0.47 150.64 -0.454 C151.841 -0.457 153.042 -0.461 154.28 -0.464 C158.722 0.369 160.392 1.98 163.574 5.154 C164.334 7.478 164.334 7.478 164.336 9.841 C164.339 10.705 164.342 11.569 164.345 12.459 C164.331 12.903 164.331 12.903 164.261 15.154 C164.269 15.599 164.269 15.599 164.306 17.849 C164.248 22.415 164.034 24.543 161.218 28.279 C158.574 30.154 158.574 30.154 155.574 30.154 C155.574 32.134 155.574 34.114 155.574 36.154 C139.739 45.815 123.644 52.008 105.574 56.154 C104.852 56.342 104.13 56.529 103.386 56.723 C95.9 58.502 88.394 58.492 80.745 58.47 C78.474 58.466 76.204 58.49 73.933 58.515 C63.8 58.558 54.469 57.363 44.574 55.154 C44.029 55.037 44.029 55.037 41.269 54.447 C27.966 51.525 15.531 45.529 3.574 39.154 C2.699 38.687 1.823 38.221 0.921 37.74 C-1.301 36.466 -1.301 36.466 -4.426 34.154 C-4.426 32.834 -4.426 31.514 -4.426 30.154 C-5.189 29.927 -5.952 29.7 -6.739 29.466 C-10.156 27.797 -10.838 26.6 -12.426 23.154 C-12.873 20.31 -12.891 17.528 -12.864 14.654 C-12.874 14.281 -12.874 14.281 -12.924 12.392 C-12.921 8.466 -12.696 6.575 -10.524 3.185 C-7.024 -0.204 -4.789 0.022 0 0 Z " fill="#843200" transform="translate(79.42620849609375,243.84609985351563)"/>
<path d="M0 0 C3.562 3.103 6.97 6.354 10.369 9.634 C11.221 10.423 12.073 11.212 12.951 12.025 C40.267 38.007 56.358 77.756 57.654 115.169 C57.918 128.577 57.266 141.528 54.369 154.634 C54.296 154.964 54.296 154.964 53.931 156.63 C49.103 177.85 40.047 198.623 26.369 215.634 C25.661 216.543 24.953 217.452 24.224 218.388 C10.555 235.601 -6.093 248.704 -25.631 258.634 C-26.706 259.186 -27.782 259.738 -28.889 260.306 C-47.671 269.438 -68.733 274.908 -89.631 275.634 C-90.443 275.674 -91.256 275.714 -92.092 275.755 C-131.505 276.786 -171.804 261.57 -200.511 234.595 C-201.889 233.279 -203.26 231.957 -204.631 230.634 C-205.348 229.969 -206.065 229.304 -206.803 228.619 C-232.77 203.898 -248.422 165.17 -249.631 129.634 C-249.651 129.075 -249.651 129.075 -249.752 126.244 C-250.465 86.156 -235.755 47.826 -209.631 17.634 C-209.272 17.208 -209.272 17.208 -207.456 15.052 C-202.059 8.812 -196.191 3.624 -189.631 -1.366 C-189.099 -1.773 -188.566 -2.181 -188.018 -2.601 C-133.391 -44.077 -53.185 -44.525 0 0 Z M-204.631 23.759 C-231.99 54.548 -242.93 95.052 -240.942 135.574 C-239.961 150.595 -235.674 164.942 -229.631 178.634 C-229.102 179.901 -228.573 181.168 -228.045 182.435 C-223.162 193.483 -217.177 203.192 -209.631 212.634 C-209.29 213.083 -209.29 213.083 -207.565 215.353 C-202.775 221.577 -197.52 226.465 -191.456 231.408 C-187.378 234.822 -184.617 237.546 -182.631 242.634 C-182.301 241.974 -181.971 241.314 -181.631 240.634 C-176.381 243.449 -171.188 246.257 -166.194 249.509 C-153.646 257.09 -138.965 261.842 -124.631 264.634 C-123.792 264.809 -122.953 264.983 -122.088 265.163 C-113.323 266.829 -104.645 267.074 -95.756 267.072 C-95.372 267.072 -95.372 267.072 -93.426 267.075 C-80.276 267.049 -68.219 265.631 -55.631 261.634 C-54.873 261.404 -54.114 261.174 -53.333 260.938 C-34.831 255.259 -17.387 246.17 -2.631 233.634 C-2.23 233.295 -2.23 233.295 -0.202 231.58 C11.266 221.577 20.754 210.804 28.369 197.634 C28.746 196.995 29.124 196.356 29.513 195.698 C48.863 162.636 54.769 122.799 45.115 85.724 C39.42 64.97 30.295 45.177 16.369 28.634 C15.463 27.521 14.559 26.408 13.654 25.294 C7.497 17.814 1.15 11.473 -6.631 5.634 C-7.576 4.887 -8.521 4.139 -9.495 3.369 C-21.102 -5.672 -32.885 -11.915 -46.723 -16.691 C-48.726 -17.399 -50.702 -18.166 -52.682 -18.936 C-56.22 -20.269 -59.733 -21.172 -63.444 -21.928 C-64.543 -22.156 -65.643 -22.385 -66.776 -22.62 C-68.048 -22.866 -69.32 -23.112 -70.631 -23.366 C-71.456 -23.539 -72.281 -23.711 -73.131 -23.889 C-121.777 -33.6 -171.559 -11.122 -204.631 23.759 Z " fill="#F8A800" transform="translate(252.63134765625,35.36572265625)"/>
<path d="M0 0 C8.154 3.893 11.838 13.032 15 21 C16.279 25.299 17.236 29.583 18 34 C18.187 34.941 18.374 35.882 18.566 36.852 C19.099 40.72 19.108 44.477 19.062 48.375 C19.058 49.111 19.053 49.847 19.049 50.605 C19.037 52.404 19.019 54.202 19 56 C19.887 56.248 20.774 56.495 21.688 56.75 C30.789 60.184 36.848 68.523 41 77 C42.935 81.487 43.195 85.127 43 90 C43.66 90 44.32 90 45 90 C46.444 87.195 47.68 84.356 48.875 81.438 C51.61 75.356 51.61 75.356 55 74 C58.771 74.067 61.176 74.479 64.375 76.5 C66.74 80.138 66.818 83.735 67 88 C69.31 88.66 71.62 89.32 74 90 C73.439 102.616 64.313 111.479 56 120 C55.415 120.659 54.83 121.317 54.227 121.996 C51.56 124.927 48.84 127.154 45.461 129.211 C44.822 129.601 44.183 129.99 43.525 130.392 C42.237 131.16 40.936 131.907 39.622 132.63 C37.816 133.691 37.816 133.691 35 136 C34.59 139.277 34.59 139.277 35 142 C36.134 142.577 37.269 143.155 38.438 143.75 C41.87 145.688 41.87 145.688 42.938 148.25 C42.958 148.827 42.979 149.405 43 150 C44.196 149.917 45.392 149.835 46.625 149.75 C51.097 149.742 53.536 151.113 57 154 C60.029 158.544 59.882 162.685 59 168 C54.342 178.103 43.661 188.835 33.48 193.254 C28.637 194.711 23.733 195.434 19.109 193.008 C16.217 190.747 14.335 188.38 13 185 C12.805 182.422 12.805 182.422 12.875 179.75 C12.893 178.858 12.911 177.966 12.93 177.047 C12.953 176.371 12.976 175.696 13 175 C12.056 175.482 11.113 175.964 10.141 176.461 C-1.5 182.235 -1.5 182.235 -8.5 182.875 C-11.877 183.285 -13.469 183.492 -15.945 185.863 C-17.075 187.427 -18.168 189.018 -19.223 190.633 C-21.237 193.315 -23.253 194.751 -26.062 196.562 C-30.257 199.289 -32.879 201.989 -35.551 206.203 C-38.158 209.436 -40.851 210.83 -44.938 211.434 C-53.234 211.444 -53.234 211.444 -57.125 209.188 C-61.399 204.201 -61.476 200.835 -61.391 194.438 C-60.612 187.583 -57.141 182.355 -53 177 C-53.866 177.052 -54.733 177.103 -55.625 177.156 C-62.678 176.83 -69.946 172.772 -74.75 167.625 C-78.217 162.464 -77.353 156.356 -77.016 150.414 C-77.01 149.287 -77.005 148.161 -77 147 C-77.66 146.34 -78.32 145.68 -79 145 C-79.879 137.214 -77.876 130.794 -74 124 C-71.396 121.57 -70.618 121 -67 121 C-66.925 120.443 -66.85 119.886 -66.773 119.312 C-65.693 113.043 -63.6 108.474 -59 104 C-54.997 101.4 -50.652 100.725 -46 100 C-46.046 98.973 -46.093 97.945 -46.141 96.887 C-46.384 89.054 -46.186 82.645 -42.973 75.332 C-41.008 70.622 -41.008 70.622 -41 68 C-42.888 65.795 -44.615 64.097 -46.812 62.25 C-47.407 61.726 -48.001 61.203 -48.614 60.663 C-50.397 59.094 -52.197 57.547 -54 56 C-73.232 39.116 -73.232 39.116 -74.312 29.105 C-74.502 24.315 -74.412 20.887 -72.375 16.5 C-68.055 11.953 -64.964 9.763 -58.625 9.5 C-49.081 9.95 -43.355 14.605 -36.945 21.465 C-28.82 30.776 -22.9 42.206 -17 53 C-14.69 53 -12.38 53 -10 53 C-12.312 45.108 -14.899 37.416 -17.949 29.777 C-20.617 22.727 -21.925 13.735 -19.023 6.598 C-14.239 -0.344 -7.943 -1.357 0 0 Z M-15 7 C-17.899 11.349 -17.587 14.889 -17 20 C-15.818 24.686 -14.249 29.201 -12.625 33.75 C-12.213 34.942 -11.8 36.135 -11.375 37.363 C-10.608 39.578 -9.835 41.79 -9.053 43.999 C-8.321 46.085 -7.659 48.196 -7.052 50.321 C-6.705 51.205 -6.358 52.089 -6 53 C-5.505 53.165 -5.505 53.165 -3 54 C-4.541 54.314 -6.083 54.626 -7.625 54.938 C-8.484 55.112 -9.342 55.286 -10.227 55.465 C-13.144 56.028 -16.068 56.523 -19 57 C-19.485 56.056 -19.969 55.113 -20.469 54.141 C-28.166 39.323 -37.222 22.061 -52.375 13.688 C-56.02 12.733 -59.312 12.177 -63 13 C-66.322 15.078 -69.232 17.465 -71 21 C-71.929 27.88 -71.392 32.969 -67.168 38.547 C-60.031 46.623 -52.231 54.051 -44 61 C-42.498 62.31 -40.998 63.623 -39.5 64.938 C-38.83 65.524 -38.159 66.111 -37.469 66.715 C-36.984 67.139 -36.499 67.563 -36 68 C-37.118 70.837 -38.28 73.642 -39.5 76.438 C-39.995 77.613 -40.49 78.789 -41 80 C-41.392 80.887 -41.784 81.774 -42.188 82.688 C-44.387 91.654 -43.474 99.938 -39 108 C-32.55 118.311 -24.584 122.89 -13.113 126.336 C-9.978 127.005 -7.195 127.125 -4 127 C-4 127.66 -4 128.32 -4 129 C-6.97 129 -9.94 129 -13 129 C-13.003 129.944 -13.005 130.887 -13.008 131.859 C-13.327 142.442 -15.209 151.791 -23.188 159.5 C-26.155 161.799 -29.114 162.734 -32.688 163.812 C-35.935 164.861 -37.561 165.401 -39.594 168.176 C-40.911 171.126 -42 173.745 -42 177 C-42.66 177 -43.32 177 -44 177 C-44.165 176.67 -44.165 176.67 -45 175 C-51.586 179.84 -56.386 185.816 -58 194 C-58.367 199.042 -58.037 201.912 -55 206 C-52.606 208.394 -51.962 208.296 -48.688 208.312 C-44.653 208.222 -42.227 207.563 -39 205 C-38.402 204.546 -37.804 204.093 -37.188 203.625 C-35.55 201.384 -35.781 199.704 -36 197 C-35.633 196.949 -35.633 196.949 -33.777 196.691 C-28.465 195.369 -23.598 191.401 -20.578 186.863 C-20.369 186.515 -20.369 186.515 -19.312 184.75 C-16.561 180.764 -13.928 180.178 -9.25 179.25 C-8.023 179.044 -6.796 178.838 -5.531 178.625 C3.683 176.994 10.627 172.584 18 167 C17.676 167.712 17.353 168.423 17.02 169.156 C15.071 174.591 14.993 180.699 17.312 186 C17.869 186.66 18.426 187.32 19 188 C19.412 188.598 19.825 189.196 20.25 189.812 C23.274 191.865 25.415 191.455 29 191 C39.375 187.396 48.222 179.574 53.934 170.266 C55.679 166.557 56.492 163.094 56 159 C53.937 155.463 52.887 154.296 49 153 C47.062 152.867 47.062 152.867 45 152.875 C44.66 152.874 44.66 152.874 42.938 152.867 C41 153 41 153 38 154 C38 153.34 38 152.68 38 152 C38.66 152 39.32 152 40 152 C39.704 149.14 39.159 148.144 37 146.188 C32.666 144.472 29.417 144.477 25 146 C21.399 148.387 18.182 151.084 15 154 C18.698 148.262 18.698 148.262 20.617 146.598 C22.966 143.884 22.334 141.021 22.238 137.586 C21.923 134.163 21.127 131.241 20 128 C15.744 126.839 12.316 127.238 8 128 C8 127.34 8 126.68 8 126 C8.865 125.892 9.73 125.783 10.621 125.672 C18.285 124.148 26.058 120.105 31 114 C31.5 113.426 32 112.853 32.516 112.262 C38.299 105.257 40.631 97.564 40.277 88.5 C39.189 78.689 35.057 70.279 27.461 63.852 C20.532 58.844 20.532 58.844 16 58 C16.035 57.114 16.07 56.229 16.105 55.316 C16.472 38.537 14.638 19.314 2.746 6.488 C-0.268 3.919 -2.485 3.056 -6.438 2.625 C-10.61 3.064 -12.07 4.07 -15 7 Z " fill="#0E0F04" transform="translate(152,31)"/>
<path d="M0 0 C3.792 -0.087 7.583 -0.14 11.375 -0.188 C11.915 -0.2 11.915 -0.2 14.648 -0.264 C15.68 -0.273 16.711 -0.283 17.773 -0.293 C18.727 -0.309 19.68 -0.324 20.662 -0.341 C21.047 -0.284 21.047 -0.284 23 0 C26.492 5.239 27.058 11.823 26 18 C24.329 20.732 22.28 22.777 20 25 C19.67 25.66 19.34 26.32 19 27 C19.617 26.434 20.235 25.868 20.871 25.285 C25.641 21.154 29.463 17.872 35.949 17.688 C39.39 18.212 41.485 19.679 44 22 C44 22.99 44 23.98 44 25 C43.34 25 42.68 25 42 25 C42 25.66 42 26.32 42 27 C42.99 26.67 43.98 26.34 45 26 C50.355 25.655 53.638 25.536 58 29 C60.508 32.761 60.143 34.421 59.531 38.734 C58.729 42.158 57.204 44.274 55 47 C54.746 47.319 54.746 47.319 53.461 48.934 C47.049 56.678 39.6 63.09 29.375 64.5 C25.046 63.859 23.676 62.384 21 59 C19.988 55.965 19.834 53.803 19.812 50.625 C19.798 49.689 19.784 48.753 19.77 47.789 C20.013 44.839 20.769 42.676 22 40 C21.429 40.447 20.858 40.895 20.27 41.355 C12.015 47.511 3.427 51.605 -6.875 52.75 C-10.092 53.237 -11.558 53.561 -13.887 55.871 C-15.012 57.427 -16.109 59.005 -17.176 60.602 C-20.289 64.694 -24.504 67.556 -29 70 C-29.99 70 -30.98 70 -32 70 C-31.897 70.722 -31.794 71.444 -31.688 72.188 C-32.13 76.173 -33.993 77.483 -37 80 C-41.042 81.347 -44.774 81.566 -49 81 C-52.032 78.802 -52.817 77.55 -54 74 C-54.742 66.725 -52.515 60.487 -48.281 54.617 C-43.738 49.246 -43.738 49.246 -40 48 C-40 48.66 -40 49.32 -40 50 C-39.34 50 -38.68 50 -38 50 C-37.865 49.313 -37.729 48.626 -37.59 47.918 C-36.923 45.127 -36.194 42.612 -35 40 C-31.812 38.125 -31.812 38.125 -28 37 C-20.221 33.907 -15.579 29.407 -11.688 22 C-9.046 15.698 -9.178 8.737 -9 2 C-6.03 2 -3.06 2 0 2 C0 1.34 0 0.68 0 0 Z " fill="#30CB61" transform="translate(148,158)"/>
<path d="M0 0 C0.331 -0.004 0.331 -0.004 2.006 -0.021 C4.224 -0.039 6.44 -0.021 8.657 -0.003 C10.248 -0.008 11.838 -0.015 13.428 -0.025 C17.746 -0.043 22.064 -0.03 26.382 -0.011 C30.899 0.006 35.416 -0.003 39.934 -0.008 C47.52 -0.013 55.106 0.003 62.692 0.031 C71.465 0.063 80.237 0.063 89.01 0.046 C97.446 0.03 105.882 0.037 114.319 0.054 C117.91 0.061 121.502 0.06 125.093 0.052 C129.322 0.045 133.551 0.057 137.779 0.084 C139.332 0.091 140.885 0.091 142.438 0.084 C144.556 0.075 146.673 0.091 148.792 0.114 C149.977 0.116 151.163 0.119 152.385 0.122 C156.002 0.73 157.178 1.765 159.396 4.628 C159.913 6.595 159.913 6.595 159.927 8.632 C159.93 9.002 159.93 9.002 159.943 10.876 C159.927 11.64 159.912 12.404 159.896 13.191 C159.903 13.575 159.903 13.575 159.943 15.517 C159.904 21.081 159.904 21.081 157.54 23.628 C154.531 25.031 152.697 25.081 149.396 24.628 C147.673 23.607 145.951 22.585 144.247 21.534 C140.984 19.937 137.92 19.901 134.396 20.628 C132.615 21.534 132.615 21.534 130.896 22.628 C127.092 25.049 123.824 25.544 119.396 24.628 C117.664 23.621 115.932 22.612 114.243 21.534 C110.733 19.813 107.182 19.925 103.396 20.628 C101.567 21.542 99.925 22.609 98.212 23.722 C94.741 25.454 91.147 25.348 87.396 24.628 C86.911 24.298 86.911 24.298 84.458 22.628 C80.124 19.798 76.442 19.813 71.396 20.628 C69.273 21.527 67.336 22.591 65.329 23.722 C61.797 25.378 59.271 25.12 55.396 24.628 C53.618 23.722 53.618 23.722 51.896 22.628 C48.157 20.26 44.734 19.79 40.396 20.628 C38.875 21.247 37.375 21.917 35.896 22.628 C31.311 24.83 28.479 25.274 23.396 24.628 C21.335 23.693 19.386 22.623 17.404 21.534 C13.827 19.92 11.294 20.125 7.396 20.628 C6.406 21.288 5.416 21.948 4.396 22.628 C0.276 25.375 -1.72 25.258 -6.604 24.628 C-8.815 23.062 -8.815 23.062 -10.604 20.628 C-11.135 17.132 -11.135 17.132 -11.104 13.191 C-11.115 11.893 -11.125 10.595 -11.135 9.257 C-10.099 2.176 -6.933 0.003 0 0 Z " fill="#6CBE08" transform="translate(80.604248046875,246.37181091308594)"/>
<path d="M0 0 C0.539 0.04 0.539 0.04 3.269 0.244 C6.812 0.521 10.34 0.877 13.875 1.25 C14.48 1.305 14.48 1.305 17.539 1.582 C18.699 1.704 19.859 1.827 21.055 1.953 C22.101 2.058 23.148 2.163 24.226 2.271 C28.615 3.425 30.296 5.814 32.556 9.622 C34.137 12.824 35.705 16.031 37.25 19.25 C37.804 20.357 38.359 21.465 38.93 22.605 C44.163 33.445 44.163 33.445 43 40 C41.129 43.168 41.129 43.168 38.562 46.188 C37.644 47.298 36.729 48.412 35.816 49.527 C35.349 50.093 34.881 50.659 34.399 51.242 C31.288 55.152 28.591 59.367 25.812 63.516 C24 66 24 66 22 67 C13.327 67.564 4.458 67.073 -4 65 C-6.589 62.411 -6.374 60.973 -6.625 57.375 C-6.7 56.372 -6.775 55.369 -6.852 54.336 C-6.901 53.565 -6.95 52.794 -7 52 C-12.455 49.553 -16.364 50.121 -22 52 C-22.482 50.891 -22.964 49.783 -23.461 48.641 C-24.099 47.177 -24.737 45.714 -25.375 44.25 C-25.692 43.52 -26.009 42.791 -26.336 42.039 C-26.645 41.33 -26.955 40.621 -27.273 39.891 C-27.556 39.241 -27.839 38.592 -28.13 37.923 C-28.743 36.568 -29.407 35.236 -30.105 33.923 C-31.543 30.833 -31.016 29.254 -30 26 C-27.986 22.687 -25.67 19.637 -23.312 16.562 C-22.7 15.742 -22.087 14.922 -21.455 14.076 C-20.238 12.459 -19.004 10.854 -17.752 9.262 C-16.639 7.825 -15.567 6.354 -14.556 4.843 C-10.405 -0.961 -6.778 -0.757 0 0 Z " fill="#FE9E02" transform="translate(224,56)"/>
<path d="M0 0 C0.33 0 0.66 0 1 0 C1 5.61 1 11.22 1 17 C0.01 17.33 -0.98 17.66 -2 18 C-1.392 18.067 -0.783 18.134 -0.156 18.203 C2 19 2 19 3.344 21.109 C3.725 21.981 4.107 22.852 4.5 23.75 C6.295 27.639 8.226 30.712 11 34 C11 34.66 11 35.32 11 36 C7.37 36.66 3.74 37.32 0 38 C0.797 38.014 1.593 38.028 2.414 38.043 C12.151 38.481 12.151 38.481 15.625 41.312 C19.332 45.507 20.471 48.011 20.32 53.773 C19.584 58.888 17.566 63.565 13.75 67.062 C13.172 67.372 12.595 67.681 12 68 C12.33 65.69 12.66 63.38 13 61 C13.66 61 14.32 61 15 61 C15 60.34 15 59.68 15 59 C14.443 58.917 13.886 58.835 13.312 58.75 C10.315 57.778 8.448 55.959 6 54 C3.688 53.25 3.688 53.25 2 53 C2.392 53.392 2.784 53.784 3.188 54.188 C3.786 54.786 4.384 55.384 5 56 C5.907 56.784 6.815 57.567 7.75 58.375 C10 61 10 61 9.812 63.812 C9.544 64.534 9.276 65.256 9 66 C7.25 66.688 7.25 66.688 5 67 C2.75 65.562 2.75 65.562 1 64 C2.75 67.875 2.75 67.875 5 69 C4.835 69.66 4.835 69.66 4 73 C1.75 73.688 1.75 73.688 -1 74 C-3.313 72.562 -3.313 72.562 -5 71 C-4.01 72.65 -3.02 74.3 -2 76 C-9.768 76.67 -9.768 76.67 -13.375 73.75 C-17.268 69.672 -18.225 66.846 -18.625 61.25 C-18.7 60.265 -18.775 59.28 -18.852 58.266 C-18.901 57.518 -18.95 56.77 -19 56 C-19.336 57.458 -19.669 58.916 -20 60.375 C-20.093 60.781 -20.093 60.781 -20.562 62.836 C-21.359 66.773 -20.43 68.176 -18.25 71.5 C-17.74 72.294 -17.229 73.088 -16.703 73.906 C-14.111 77.093 -12.146 77.865 -8.09 78.344 C-5.986 78.448 -3.882 78.552 -1.777 78.656 C1 79 1 79 4 81 C3.67 83.31 3.34 85.62 3 88 C2.01 88.33 1.02 88.66 0 89 C-0.33 89.66 -0.66 90.32 -1 91 C-2.98 91 -4.96 91 -7 91 C-7 91.66 -7 92.32 -7 93 C-14.814 93.465 -21.001 90.066 -27.109 85.383 C-31.316 80.875 -31.378 76.504 -31.25 70.625 C-31.173 69.221 -31.095 67.818 -31.016 66.414 C-31.01 65.287 -31.005 64.161 -31 63 C-31.66 62.34 -32.32 61.68 -33 61 C-33.879 53.214 -31.876 46.794 -28 40 C-25.396 37.57 -24.618 37 -21 37 C-20.925 36.443 -20.85 35.886 -20.773 35.312 C-19.693 29.043 -17.6 24.474 -13 20 C-8.927 17.355 -4.799 16.8 0 16 C0 10.72 0 5.44 0 0 Z " fill="#0B070F" transform="translate(106,115)"/>
<path d="M0 0 C8.154 3.893 11.838 13.032 15 21 C16.279 25.299 17.236 29.583 18 34 C18.187 34.941 18.374 35.882 18.566 36.852 C19.099 40.72 19.108 44.477 19.062 48.375 C19.058 49.111 19.053 49.847 19.049 50.605 C19.037 52.404 19.019 54.202 19 56 C19.887 56.248 20.774 56.495 21.688 56.75 C30.784 60.183 36.855 68.522 41 77 C42.941 81.621 43.488 86.049 44 91 C43.34 91 42.68 91 42 91 C42 88.69 42 86.38 42 84 C41.34 84 40.68 84 40 84 C39.67 84.66 39.34 85.32 39 86 C38.853 85.383 38.706 84.765 38.555 84.129 C35.516 72.655 30.184 66.067 20 60 C19.305 59.733 18.611 59.465 17.895 59.19 C16 58 16 58 15.426 56.007 C15.407 55.603 15.407 55.603 15.312 53.555 C15.256 52.65 15.2 51.745 15.141 50.813 C15.095 49.844 15.048 48.874 15 47.875 C14.088 34.818 12.864 18.349 3.418 8.32 C0.211 5.558 -2.116 4.1 -6.312 3.625 C-10.906 4.092 -12.114 5.52 -15 9 C-15.33 9.33 -15.66 9.66 -16 10 C-17.197 18.503 -14.41 25.86 -11.562 33.75 C-10.727 36.118 -9.894 38.488 -9.066 40.859 C-8.695 41.895 -8.323 42.932 -7.94 43.999 C-7.002 46.995 -6.44 49.895 -6 53 C-5.34 53.165 -5.34 53.165 -2 54 C-2 54.33 -2 54.66 -2 55 C-3.708 55.313 -5.417 55.625 -7.125 55.938 C-8.076 56.112 -9.028 56.286 -10.008 56.465 C-13.002 57 -15.999 57.506 -19 58 C-19.316 57.427 -19.633 56.853 -19.959 56.263 C-39.597 20.844 -39.597 20.844 -51.5 15 C-55.841 13.76 -58.492 13.428 -63 14 C-66.015 15.762 -68.414 17.828 -70 21 C-70.937 27.936 -70.358 32.995 -66.102 38.613 C-59.3 46.338 -51.828 53.329 -44 60 C-42.33 61.476 -40.664 62.955 -39 64.438 C-38.237 65.117 -37.474 65.796 -36.688 66.496 C-36.409 66.744 -36.409 66.744 -35 68 C-36.124 70.835 -37.28 73.641 -38.5 76.438 C-38.995 77.613 -39.49 78.789 -40 80 C-40.392 80.887 -40.784 81.774 -41.188 82.688 C-43.389 91.662 -42.466 99.929 -38 108 C-32.513 116.979 -25.327 121.951 -15.25 124.812 C-11.525 125.711 -7.799 126.487 -4 127 C-4 127.66 -4 128.32 -4 129 C-6.97 129 -9.94 129 -13 129 C-12.965 129.472 -12.965 129.472 -12.789 131.859 C-12.349 142.294 -13.882 149.845 -20.793 158.156 C-24.499 161.763 -27.804 163.37 -32.75 164.812 C-36.205 165.891 -37.606 166.389 -39.59 169.465 C-40.574 171.962 -41.378 174.391 -42 177 C-42.99 176.67 -43.98 176.34 -45 176 C-47.875 178.171 -50.454 180.454 -53 183 C-53 180.36 -53 177.72 -53 175 C-51.02 175 -49.04 175 -47 175 C-46.67 174.01 -46.34 173.02 -46 172 C-45.01 172 -44.02 172 -43 172 C-42.67 169.69 -42.34 167.38 -42 165 C-45.111 163.963 -47.549 163.831 -50.812 163.688 C-55.954 163.272 -59.144 162.663 -63 159 C-64.521 156.728 -65.736 154.437 -67 152 C-67.66 151.34 -68.32 150.68 -69 150 C-68.67 149.67 -68.34 149.34 -68 149 C-67.471 146.687 -67.037 144.363 -66.598 142.031 C-66.499 141.696 -66.499 141.696 -66 140 C-65.34 139.67 -64.68 139.34 -64 139 C-63.974 139.797 -63.948 140.593 -63.922 141.414 C-63.58 147.805 -63.333 152.158 -59 157 C-55.356 159.429 -53.288 159.162 -49 159 C-49.66 157.68 -50.32 156.36 -51 155 C-50.443 155.351 -49.886 155.701 -49.312 156.062 C-46.461 157.218 -44.915 156.81 -42 156 C-41.67 155.01 -41.34 154.02 -41 153 C-42.32 152.34 -43.64 151.68 -45 151 C-45 150.01 -45 149.02 -45 148 C-44.422 148.351 -43.845 148.701 -43.25 149.062 C-40.642 150.149 -39.606 149.931 -37 149 C-37.125 146.25 -37.125 146.25 -38 143 C-41.062 140.75 -41.062 140.75 -44 139 C-44 138.34 -44 137.68 -44 137 C-39.558 137.508 -37.375 139.158 -34 142 C-33.01 142.33 -32.02 142.66 -31 143 C-31 143.66 -31 144.32 -31 145 C-31.66 145 -32.32 145 -33 145 C-33 146.98 -33 148.96 -33 151 C-28.404 145.791 -26.504 140.872 -26.676 133.961 C-27.223 130.653 -28.893 128.528 -31 126 C-34.522 123.652 -36.508 123.623 -40.688 123.375 C-41.867 123.3 -43.046 123.225 -44.262 123.148 C-44.714 123.124 -44.714 123.124 -47 123 C-46 121 -46 121 -43 120 C-41.606 119.933 -40.208 119.915 -38.812 119.938 C-37.554 119.958 -36.296 119.979 -35 120 C-35.566 119.192 -36.132 118.384 -36.715 117.551 C-37.448 116.482 -38.182 115.414 -38.938 114.312 C-39.668 113.257 -40.399 112.201 -41.152 111.113 C-42.855 108.244 -43.617 106.275 -44 103 C-45.65 103 -47.3 103 -49 103 C-48.67 102.34 -48.34 101.68 -48 101 C-47.01 101 -46.02 101 -45 101 C-45.021 100.447 -45.042 99.893 -45.063 99.323 C-45.697 80.055 -45.697 80.055 -41.777 72.875 C-41 71 -41 71 -41.039 69.074 C-42.479 65.965 -44.898 64.019 -47.438 61.812 C-47.976 61.331 -48.514 60.85 -49.069 60.354 C-50.705 58.894 -52.351 57.445 -54 56 C-73.234 39.096 -73.234 39.096 -74.312 29.105 C-74.502 24.315 -74.412 20.887 -72.375 16.5 C-68.055 11.953 -64.964 9.763 -58.625 9.5 C-49.081 9.95 -43.355 14.605 -36.945 21.465 C-28.82 30.776 -22.9 42.206 -17 53 C-14.69 53 -12.38 53 -10 53 C-12.312 45.108 -14.899 37.416 -17.949 29.777 C-20.617 22.727 -21.925 13.735 -19.023 6.598 C-14.239 -0.344 -7.943 -1.357 0 0 Z " fill="#050909" transform="translate(152,31)"/>
<path d="M0 0 C0.334 -0.002 0.334 -0.002 2.022 -0.013 C4.268 -0.027 6.514 -0.033 8.76 -0.039 C10.367 -0.047 11.973 -0.055 13.579 -0.064 C18.864 -0.09 24.148 -0.105 29.433 -0.12 C31.251 -0.125 33.07 -0.13 34.888 -0.136 C42.451 -0.157 50.013 -0.176 57.576 -0.187 C68.419 -0.204 79.262 -0.237 90.105 -0.294 C97.727 -0.332 105.348 -0.352 112.969 -0.357 C117.522 -0.361 122.075 -0.373 126.628 -0.405 C130.913 -0.435 135.197 -0.442 139.482 -0.43 C141.053 -0.43 142.625 -0.438 144.196 -0.456 C146.345 -0.478 148.491 -0.47 150.64 -0.454 C151.841 -0.457 153.042 -0.461 154.28 -0.464 C158.722 0.369 160.392 1.98 163.574 5.154 C164.334 7.478 164.334 7.478 164.336 9.841 C164.339 10.705 164.342 11.569 164.345 12.459 C164.331 12.903 164.331 12.903 164.261 15.154 C164.269 15.599 164.269 15.599 164.306 17.849 C164.248 22.415 164.034 24.543 161.218 28.279 C158.574 30.154 158.574 30.154 155.574 30.154 C155.574 32.134 155.574 34.114 155.574 36.154 C154.914 36.154 154.254 36.154 153.574 36.154 C153.244 34.174 152.914 32.194 152.574 30.154 C151.811 30.03 151.048 29.906 150.261 29.779 C147.574 29.154 147.574 29.154 144.574 27.154 C139.923 26.379 135.96 26.595 131.949 29.154 C127.91 31.548 126.199 31.859 121.574 31.154 C119.886 30.342 118.221 29.483 116.574 28.591 C113.286 26.846 111.808 26.158 108.011 26.091 C105.172 26.969 102.694 27.973 100.011 29.216 C96.304 30.929 93.712 31.874 89.574 31.154 C88.522 30.494 87.47 29.834 86.386 29.154 C81.714 26.26 76.903 26.344 71.574 27.154 C69.455 28.074 67.536 29.166 65.535 30.314 C61.844 31.895 58.346 31.226 54.574 30.154 C53.179 29.485 51.803 28.777 50.449 28.029 C46.448 25.863 44.04 25.878 39.574 27.154 C38.273 27.845 36.981 28.554 35.699 29.279 C31.186 31.675 27.432 31.611 22.574 30.154 C20.556 28.848 18.553 27.518 16.574 26.154 C11.194 25.054 7.354 27.547 2.746 30.06 C0.574 31.154 0.574 31.154 -1.426 31.154 C-1.426 32.144 -1.426 33.134 -1.426 34.154 C-2.416 34.154 -3.406 34.154 -4.426 34.154 C-4.426 32.834 -4.426 31.514 -4.426 30.154 C-5.189 29.927 -5.952 29.7 -6.739 29.466 C-10.156 27.797 -10.838 26.6 -12.426 23.154 C-12.873 20.31 -12.891 17.528 -12.864 14.654 C-12.874 14.281 -12.874 14.281 -12.924 12.392 C-12.921 8.466 -12.696 6.575 -10.524 3.185 C-7.024 -0.204 -4.789 0.022 0 0 Z M-7.806 5.466 C-9.951 9.024 -9.959 11.585 -9.926 15.716 C-9.937 17.017 -9.947 18.318 -9.957 19.658 C-9.426 23.154 -9.426 23.154 -7.637 25.587 C-4.922 27.511 -2.73 27.706 0.566 27.56 C2.574 27.154 2.574 27.154 5.574 25.154 C9.299 22.67 12.267 22.309 16.574 23.154 C18.582 24.06 18.582 24.06 20.574 25.154 C24.555 27.327 28.084 28.037 32.574 27.154 C34.882 26.213 37.101 25.141 39.347 24.06 C43.072 22.544 45.562 22.636 49.574 23.154 C51.394 24.084 53.071 25.152 54.796 26.248 C57.987 27.874 61.156 27.839 64.574 27.154 C66.507 26.248 66.507 26.248 68.449 25.154 C73.068 22.608 77.394 22.242 82.574 23.154 C84.586 24.468 86.587 25.801 88.574 27.154 C93.252 28.052 97.055 27.765 101.074 25.154 C105.115 22.534 108.872 22.282 113.574 23.154 C115.421 24.06 115.421 24.06 117.136 25.154 C121.205 27.521 123.975 28.103 128.574 27.154 C130.355 26.248 130.355 26.248 132.074 25.154 C135.881 22.731 139.143 22.243 143.574 23.154 C145.425 24.06 145.425 24.06 147.199 25.154 C150.823 27.301 152.457 27.794 156.574 27.154 C158.718 26.154 158.718 26.154 160.574 24.154 C160.981 21.188 161.133 18.673 161.074 15.716 C161.089 14.953 161.105 14.189 161.121 13.402 C161.118 13.032 161.118 13.032 161.105 11.158 C161.103 10.822 161.103 10.822 161.091 9.121 C160.318 6.181 158.931 5.044 156.574 3.154 C153.563 2.648 153.563 2.648 149.97 2.639 C149.307 2.632 148.645 2.625 147.963 2.618 C145.746 2.6 143.529 2.61 141.312 2.62 C139.722 2.613 138.132 2.605 136.542 2.594 C132.223 2.572 127.906 2.575 123.587 2.584 C119.984 2.589 116.38 2.581 112.777 2.574 C104.277 2.557 95.778 2.561 87.278 2.577 C78.505 2.594 69.732 2.579 60.96 2.546 C53.43 2.52 45.9 2.512 38.371 2.521 C33.872 2.526 29.374 2.523 24.876 2.503 C20.647 2.485 16.419 2.491 12.19 2.515 C10.637 2.52 9.084 2.517 7.532 2.504 C5.413 2.488 3.297 2.503 1.178 2.526 C-0.008 2.526 -1.193 2.527 -2.415 2.527 C-5.426 3.154 -5.426 3.154 -7.806 5.466 Z " fill="#060800" transform="translate(79.42620849609375,243.84609985351563)"/>
<path d="M0 0 C8.154 3.893 11.838 13.032 15 21 C16.279 25.299 17.236 29.583 18 34 C18.187 34.941 18.374 35.882 18.566 36.852 C19.099 40.72 19.108 44.477 19.062 48.375 C19.058 49.111 19.053 49.847 19.049 50.605 C19.037 52.404 19.019 54.202 19 56 C19.887 56.248 20.774 56.495 21.688 56.75 C30.784 60.183 36.855 68.522 41 77 C42.941 81.621 43.488 86.049 44 91 C43.34 91 42.68 91 42 91 C42 88.69 42 86.38 42 84 C41.34 84 40.68 84 40 84 C39.67 84.66 39.34 85.32 39 86 C38.853 85.383 38.706 84.765 38.555 84.129 C35.516 72.655 30.184 66.067 20 60 C19.305 59.733 18.611 59.465 17.895 59.19 C16 58 16 58 15.426 56.007 C15.407 55.603 15.407 55.603 15.312 53.555 C15.256 52.65 15.2 51.745 15.141 50.813 C15.095 49.844 15.048 48.874 15 47.875 C14.088 34.818 12.864 18.349 3.418 8.32 C0.211 5.558 -2.116 4.1 -6.312 3.625 C-10.906 4.092 -12.114 5.52 -15 9 C-15.33 9.33 -15.66 9.66 -16 10 C-17.197 18.503 -14.41 25.86 -11.562 33.75 C-10.727 36.118 -9.894 38.488 -9.066 40.859 C-8.695 41.895 -8.323 42.932 -7.94 43.999 C-7.002 46.995 -6.44 49.895 -6 53 C-5.34 53.165 -5.34 53.165 -2 54 C-2 54.33 -2 54.66 -2 55 C-3.708 55.313 -5.417 55.625 -7.125 55.938 C-8.076 56.112 -9.028 56.286 -10.008 56.465 C-13.002 57 -15.999 57.506 -19 58 C-19.316 57.427 -19.633 56.853 -19.959 56.263 C-39.597 20.844 -39.597 20.844 -51.5 15 C-55.841 13.76 -58.492 13.428 -63 14 C-66.015 15.762 -68.414 17.828 -70 21 C-70.937 27.936 -70.358 32.995 -66.102 38.613 C-59.3 46.338 -51.828 53.329 -44 60 C-42.33 61.476 -40.664 62.955 -39 64.438 C-38.237 65.117 -37.474 65.796 -36.688 66.496 C-36.409 66.744 -36.409 66.744 -35 68 C-36.124 70.835 -37.28 73.641 -38.5 76.438 C-39.829 79.594 -40.965 82.737 -42 86 C-42.495 85.67 -42.495 85.67 -45 84 C-44.715 82.582 -44.422 81.166 -44.125 79.75 C-43.963 78.961 -43.8 78.172 -43.633 77.359 C-43 75 -43 75 -41.867 72.953 C-41 71 -41 71 -41.035 69.074 C-42.48 65.968 -44.897 64.02 -47.438 61.812 C-47.976 61.331 -48.514 60.85 -49.069 60.354 C-50.705 58.894 -52.351 57.445 -54 56 C-73.234 39.096 -73.234 39.096 -74.312 29.105 C-74.502 24.315 -74.412 20.887 -72.375 16.5 C-68.055 11.953 -64.964 9.763 -58.625 9.5 C-49.081 9.95 -43.355 14.605 -36.945 21.465 C-28.82 30.776 -22.9 42.206 -17 53 C-14.69 53 -12.38 53 -10 53 C-12.312 45.108 -14.899 37.416 -17.949 29.777 C-20.617 22.727 -21.925 13.735 -19.023 6.598 C-14.239 -0.344 -7.943 -1.357 0 0 Z " fill="#121106" transform="translate(152,31)"/>
<path d="M0 0 C2.745 2.203 4.989 4.633 5.957 8.02 C6.62 14.541 5.345 19.387 1.957 25.02 C-0.293 27.082 -0.293 27.082 -2.043 28.02 C-1.713 25.71 -1.383 23.4 -1.043 21.02 C-0.383 21.02 0.277 21.02 0.957 21.02 C0.957 20.36 0.957 19.7 0.957 19.02 C0.4 18.937 -0.157 18.855 -0.73 18.77 C-3.728 17.797 -5.595 15.978 -8.043 14.02 C-10.355 13.27 -10.355 13.27 -12.043 13.02 C-11.651 13.411 -11.259 13.803 -10.855 14.207 C-10.257 14.805 -9.659 15.403 -9.043 16.02 C-8.135 16.803 -7.228 17.587 -6.293 18.395 C-4.043 21.02 -4.043 21.02 -4.23 23.832 C-4.499 24.554 -4.767 25.276 -5.043 26.02 C-6.793 26.707 -6.793 26.707 -9.043 27.02 C-11.293 25.582 -11.293 25.582 -13.043 24.02 C-11.293 27.895 -11.293 27.895 -9.043 29.02 C-9.373 30.34 -9.703 31.66 -10.043 33.02 C-12.293 33.707 -12.293 33.707 -15.043 34.02 C-17.355 32.582 -17.355 32.582 -19.043 31.02 C-18.053 32.67 -17.063 34.32 -16.043 36.02 C-23.811 36.689 -23.811 36.689 -27.418 33.77 C-31.97 29.001 -32.561 25.379 -32.414 18.902 C-31.559 12.263 -28.232 7.651 -23.043 3.582 C-16.57 -0.999 -7.555 -3.626 0 0 Z " fill="#30CA61" transform="translate(120.04296875,154.98046875)"/>
<path d="M0 0 C3 0.25 3 0.25 5 2.25 C5.551 7.097 4.393 10.062 2 14.25 C2.907 14.044 3.815 13.838 4.75 13.625 C8.11 13.237 9.241 13.446 12 15.25 C10.105 28.306 -2.248 39.591 -12.25 47.25 C-16.019 50.02 -19.772 52.248 -24 54.25 C-24.727 52.508 -25.431 50.756 -26.125 49 C-26.519 48.025 -26.914 47.051 -27.32 46.047 C-28 43.25 -28 43.25 -27.301 41.133 C-25.94 39.164 -24.545 37.254 -23.062 35.375 C-18.858 29.827 -16.701 25.263 -16 18.25 C-15.34 18.25 -14.68 18.25 -14 18.25 C-13.887 17.982 -13.887 17.982 -13.312 16.625 C-12 14.25 -12 14.25 -9.5 11.375 C-7.048 8.542 -6.065 5.855 -5 2.25 C-3 0.25 -3 0.25 0 0 Z " fill="#30CB61" transform="translate(210,108.75)"/>
<path d="M0 0 C0.661 -0.005 1.323 -0.011 2.004 -0.016 C4.224 -0.031 6.444 -0.023 8.664 -0.016 C10.254 -0.022 11.844 -0.029 13.434 -0.037 C17.756 -0.055 22.079 -0.054 26.401 -0.048 C30.007 -0.045 33.613 -0.051 37.219 -0.057 C45.725 -0.071 54.231 -0.07 62.736 -0.058 C71.517 -0.047 80.297 -0.061 89.077 -0.088 C96.611 -0.11 104.144 -0.117 111.678 -0.111 C116.18 -0.107 120.681 -0.11 125.183 -0.127 C129.416 -0.142 133.648 -0.138 137.881 -0.12 C139.436 -0.116 140.99 -0.119 142.545 -0.13 C144.665 -0.143 146.784 -0.131 148.905 -0.114 C149.499 -0.113 149.499 -0.113 152.502 -0.113 C156.12 0.488 157.347 1.476 159.516 4.388 C159.266 6.638 159.266 6.638 158.516 8.388 C157.526 7.728 156.536 7.068 155.516 6.388 C152.625 6.136 152.625 6.136 149.025 6.134 C148.694 6.132 148.694 6.132 147.019 6.124 C144.797 6.116 142.574 6.123 140.352 6.129 C138.76 6.126 137.169 6.123 135.577 6.118 C131.251 6.109 126.924 6.113 122.598 6.119 C118.075 6.124 113.552 6.119 109.029 6.116 C101.433 6.113 93.837 6.117 86.241 6.127 C77.452 6.138 68.664 6.134 59.876 6.123 C52.337 6.114 44.799 6.113 37.26 6.118 C32.754 6.121 28.249 6.122 23.743 6.115 C19.508 6.109 15.273 6.113 11.037 6.125 C9.481 6.128 7.925 6.127 6.368 6.122 C4.247 6.117 2.127 6.124 0.007 6.134 C-1.181 6.134 -2.369 6.135 -3.593 6.136 C-6.484 6.388 -6.484 6.388 -9.484 8.388 C-9.846 3.925 -9.846 3.925 -8.378 1.744 C-5.592 -0.251 -3.404 0.007 0 0 Z " fill="#ACD90E" transform="translate(80.48399353027344,246.61231994628906)"/>
<path d="M0 0 C0.539 0.04 0.539 0.04 3.269 0.244 C6.812 0.521 10.34 0.877 13.875 1.25 C14.48 1.305 14.48 1.305 17.539 1.582 C18.699 1.704 19.859 1.827 21.055 1.953 C22.101 2.058 23.148 2.163 24.226 2.271 C28.615 3.425 30.296 5.814 32.556 9.622 C34.137 12.824 35.705 16.031 37.25 19.25 C37.804 20.357 38.359 21.465 38.93 22.605 C44.163 33.445 44.163 33.445 43 40 C41.129 43.168 41.129 43.168 38.562 46.188 C37.644 47.298 36.729 48.412 35.816 49.527 C35.349 50.093 34.881 50.659 34.399 51.242 C31.288 55.152 28.591 59.367 25.812 63.516 C24 66 24 66 22 67 C13.573 67.548 4.097 67.597 -4 65 C-5.363 62.922 -5.363 62.922 -6 61 C-4.701 60.979 -3.401 60.959 -2.062 60.938 C-1.154 60.914 -0.245 60.891 0.691 60.867 C3.334 60.973 5.474 61.27 8.027 61.82 C16.645 63.434 16.645 63.434 21 62 C25.806 58.099 28.796 52.519 31.732 47.16 C32.968 45.054 34.352 43.266 35.891 41.375 C38 38 38 38 38.051 34.797 C37.704 33.544 37.357 32.291 37 31 C36.775 30.123 36.55 29.246 36.318 28.342 C34.221 20.953 31.613 13.431 26 8 C17.251 4.263 7.351 4.728 -2 5 C-3.047 4.926 -4.095 4.851 -5.174 4.774 C-8 5 -8 5 -9.919 6.573 C-10.455 7.295 -10.991 8.018 -11.543 8.762 C-12.142 9.551 -12.741 10.341 -13.357 11.154 C-13.961 11.99 -14.565 12.826 -15.188 13.688 C-15.803 14.504 -16.419 15.321 -17.053 16.162 C-18.738 18.417 -20.373 20.702 -22 23 C-22.656 23.873 -23.312 24.745 -23.988 25.645 C-25.479 29.116 -24.893 31.37 -24 35 C-22.502 38.426 -20.808 41.696 -19.082 45.012 C-18 48 -18 48 -18.824 50.395 C-19.212 50.924 -19.6 51.454 -20 52 C-20.66 52 -21.32 52 -22 52 C-22.482 50.891 -22.964 49.783 -23.461 48.641 C-24.099 47.177 -24.737 45.714 -25.375 44.25 C-25.692 43.52 -26.009 42.791 -26.336 42.039 C-26.645 41.33 -26.955 40.621 -27.273 39.891 C-27.556 39.241 -27.839 38.592 -28.13 37.923 C-28.743 36.568 -29.407 35.236 -30.105 33.923 C-31.543 30.833 -31.016 29.254 -30 26 C-27.986 22.687 -25.67 19.637 -23.312 16.562 C-22.7 15.742 -22.087 14.922 -21.455 14.076 C-20.238 12.459 -19.004 10.854 -17.752 9.262 C-16.639 7.825 -15.567 6.354 -14.556 4.843 C-10.405 -0.961 -6.778 -0.757 0 0 Z " fill="#FEECDD" transform="translate(224,56)"/>
<path d="M0 0 C2.238 1.129 2.238 1.129 4.312 2.562 C8.459 5.016 11.154 5.495 15.879 4.668 C18.047 3.985 19.66 3.105 21.562 1.875 C25.131 -0.071 26.989 -0.352 30.969 0.367 C33.158 1.049 34.946 1.995 36.938 3.125 C41.411 5.547 45.158 5.354 50 4 C50.784 3.484 51.567 2.969 52.375 2.438 C56.693 0.073 61.195 0.333 66 1 C67.953 1.938 67.953 1.938 69.625 3.062 C73.57 5.327 75.383 5.327 79.742 4.633 C82.087 3.976 83.943 3.063 86.062 1.875 C89.649 -0.075 92.062 -0.371 96.062 0.371 C98.118 1.038 99.731 1.922 101.562 3.062 C105.552 5.311 107.492 5.644 112 5 C113.716 3.983 115.431 2.965 117.121 1.906 C121.398 -0.157 125.832 0.373 130.281 1.66 C133.27 2.911 135.42 3.876 136.941 6.824 C137.5 8.75 137.5 8.75 138 12 C137.34 12 136.68 12 136 12 C136 11.34 136 10.68 136 10 C135.299 9.897 134.597 9.794 133.875 9.688 C131 9 131 9 128.062 7.375 C124.389 5.725 122.82 5.862 119 7 C118.278 7.516 117.556 8.031 116.812 8.562 C112.377 10.829 107.885 10.58 103 10 C101.323 9.018 99.655 8.019 98 7 C93.333 6.383 89.339 6.301 85.125 8.5 C80.309 10.812 75.253 10.721 70 10 C68.312 9.037 66.643 8.039 65 7 C59.632 6.48 56.922 6.969 52.051 9.32 C46.527 11.151 40.034 10.957 34.812 8.5 C33.884 8.005 32.956 7.51 32 7 C27.813 6.415 24.259 6.205 20.625 8.5 C16.34 10.948 11.817 10.556 7 10 C4.977 9.048 2.973 8.052 1 7 C-4.59 6.116 -8.018 7.401 -13 10 C-16.375 10.188 -16.375 10.188 -19 10 C-18.855 8.203 -18.855 8.203 -18 6 C-15.488 4.297 -15.488 4.297 -12.312 2.75 C-11.277 2.229 -10.242 1.708 -9.176 1.172 C-5.787 -0.079 -3.577 -0.413 0 0 Z " fill="#5B2000" transform="translate(96,269)"/>
<path d="M0 0 C0.33 0 0.66 0 1 0 C1.049 0.843 1.098 1.686 1.148 2.555 C1.223 3.65 1.298 4.746 1.375 5.875 C1.445 6.966 1.514 8.056 1.586 9.18 C2 12 2 12 4 14 C9.205 14.612 11.752 13.643 16.121 10.906 C19.669 9.195 23.18 9.313 27 10 C29.091 10.915 31.034 11.984 33.027 13.094 C36.578 14.725 39.122 14.5 43 14 C43.949 13.34 44.898 12.68 45.875 12 C50.256 9.196 53.925 9.182 59 10 C61.15 10.895 63.108 11.955 65.137 13.094 C68.258 14.612 70.607 14.485 74 14 C75.312 13.374 76.603 12.704 77.875 12 C82.296 9.615 86.047 9.111 91 10 C92.523 10.636 94.024 11.326 95.5 12.062 C100.219 14.389 103.958 14.432 109 13 C109.804 12.484 110.609 11.969 111.438 11.438 C115.478 9.171 119.476 9.325 124 10 C125.957 10.902 125.957 10.902 127.688 12 C131.609 14.368 133.493 14.644 138 14 C139.715 12.984 141.429 11.966 143.117 10.906 C146.656 9.203 150.192 9.296 154 10 C155.918 10.906 155.918 10.906 157.688 12 C161.259 14.157 162.919 14.556 167 14 C167.99 13.34 168.98 12.68 170 12 C169.688 14.375 169.688 14.375 169 17 C165.443 19.371 164.195 19.484 160 19 C158.278 17.979 156.556 16.957 154.852 15.906 C151.588 14.309 148.525 14.273 145 15 C143.219 15.906 143.219 15.906 141.5 17 C137.696 19.421 134.429 19.916 130 19 C128.268 17.993 126.537 16.984 124.848 15.906 C121.338 14.185 117.786 14.297 114 15 C112.172 15.914 110.529 16.981 108.816 18.094 C105.345 19.825 101.752 19.72 98 19 C97.515 18.67 97.515 18.67 95.062 17 C90.729 14.17 87.046 14.185 82 15 C79.877 15.899 77.941 16.963 75.934 18.094 C72.401 19.749 69.875 19.492 66 19 C64.223 18.094 64.223 18.094 62.5 17 C58.761 14.632 55.338 14.161 51 15 C49.48 15.619 47.979 16.288 46.5 17 C41.915 19.202 39.083 19.645 34 19 C31.94 18.065 29.991 16.995 28.008 15.906 C24.431 14.292 21.898 14.497 18 15 C17.01 15.66 16.02 16.32 15 17 C10.88 19.746 8.884 19.63 4 19 C1.773 17.453 1.773 17.453 0 15 C-0.291 12.263 -0.383 9.961 -0.25 7.25 C-0.232 6.553 -0.214 5.855 -0.195 5.137 C-0.148 3.424 -0.077 1.712 0 0 Z " fill="#489E0F" transform="translate(70,252)"/>
<path d="M0 0 C0.887 2.416 1.185 3.559 0.172 5.973 C-6.302 15.488 -14.6 25.571 -26 29 C-30.219 29.744 -34.011 30.044 -37.891 28.008 C-40.783 25.747 -42.665 23.38 -44 20 C-44.195 17.422 -44.195 17.422 -44.125 14.75 C-44.107 13.858 -44.089 12.966 -44.07 12.047 C-44.047 11.371 -44.024 10.696 -44 10 C-44.944 10.482 -45.887 10.964 -46.859 11.461 C-58.5 17.235 -58.5 17.235 -65.5 17.875 C-68.877 18.285 -70.469 18.492 -72.945 20.863 C-74.075 22.427 -75.168 24.018 -76.223 25.633 C-78.237 28.315 -80.253 29.751 -83.062 31.562 C-87.257 34.289 -89.879 36.989 -92.551 41.203 C-95.158 44.436 -97.851 45.83 -101.938 46.434 C-110.234 46.444 -110.234 46.444 -114.125 44.188 C-118.399 39.202 -118.48 35.835 -118.387 29.438 C-117.615 22.582 -114.392 16.393 -109 12 C-109.891 16.53 -110.856 20.849 -112.625 25.125 C-114.087 28.876 -114.459 31.946 -114 36 C-112.844 38.313 -111.826 40.174 -110 42 C-104.592 42.581 -100.412 42.476 -96 39 C-94 37 -94 37 -93.875 34.625 C-93 32 -93 32 -91.406 30.996 C-90.005 30.352 -88.599 29.716 -87.191 29.086 C-82.195 26.61 -78.585 23.177 -75.938 18.312 C-74.135 15.59 -73.113 15.036 -69.93 14.031 C-67.484 13.545 -65.031 13.09 -62.574 12.664 C-54.767 11.214 -48.686 8.216 -42.594 3.172 C-41 2 -41 2 -39 2 C-39.16 2.712 -39.32 3.423 -39.484 4.156 C-40.513 9.828 -41.015 15.739 -38.625 21.062 C-35.368 24.946 -35.368 24.946 -32 25.438 C-22.882 25.116 -14.94 18.355 -9 12 C-6.186 8.428 -3.579 4.744 -1 1 C-0.67 0.67 -0.34 0.34 0 0 Z " fill="#0C0E04" transform="translate(209,196)"/>
<path d="M0 0 C1.715 1.566 1.715 1.566 3 3 C0.31 14.12 -7.403 22.029 -17 28 C-21.646 30.639 -25.641 31.328 -31 31 C-31 30.01 -31 29.02 -31 28 C-31.083 26.948 -31.165 25.896 -31.25 24.812 C-30.781 17.654 -26.973 12.104 -22.184 6.902 C-15.743 1.291 -8.435 -2.607 0 0 Z " fill="#209B49" transform="translate(205,191)"/>
<path d="M0 0 C0.33 0 0.66 0 1 0 C1 5.61 1 11.22 1 17 C0.01 17.33 -0.98 17.66 -2 18 C-1.392 18.067 -0.783 18.134 -0.156 18.203 C2 19 2 19 3.344 21.109 C3.725 21.981 4.107 22.852 4.5 23.75 C6.295 27.639 8.226 30.712 11 34 C11 34.66 11 35.32 11 36 C7.37 36 3.74 36 0 36 C0 35.01 0 34.02 0 33 C-0.66 33 -1.32 33 -2 33 C-2 34.32 -2 35.64 -2 37 C-8.237 41.036 -8.237 41.036 -11.688 40.875 C-16.161 39.182 -16.161 39.182 -18 38 C-18.165 37.505 -18.165 37.505 -19 35 C-19.33 35.165 -19.33 35.165 -21 36 C-19.42 29.502 -17.96 24.621 -13 20 C-8.478 17.616 -5.134 16.856 0 16 C0 10.72 0 5.44 0 0 Z " fill="#1C0C0A" transform="translate(106,115)"/>
<path d="M0 0 C5.504 0.437 5.504 0.437 7.758 2.996 C8.209 3.802 8.66 4.607 9.125 5.438 C11.053 8.831 12.238 10.724 16 12 C19.076 12.363 22.129 12.503 25.223 12.656 C28 13 28 13 31 15 C30.67 17.31 30.34 19.62 30 22 C23.335 25.232 17.267 24.236 10.441 22.059 C6.135 20.191 2.13 17.26 0 13 C-0.071 10.793 -0.084 8.583 -0.062 6.375 C-0.053 5.186 -0.044 3.998 -0.035 2.773 C-0.024 1.858 -0.012 0.943 0 0 Z " fill="#6817A7" transform="translate(79,181)"/>
<path d="M0 0 C0.625 1.875 0.625 1.875 1 4 C0.34 4.66 -0.32 5.32 -1 6 C-1.625 8.625 -1.625 8.625 -2 11 C1.354 10.051 4.692 9.103 8 8 C7.125 11.875 7.125 11.875 6 13 C5.798 15.257 5.681 17.51 5.574 19.773 C5 22 5 22 3.273 23.762 C0.634 25.199 -1.07 25.433 -4.062 25.438 C-4.92 25.457 -5.777 25.476 -6.66 25.496 C-9 25 -9 25 -10.781 23.137 C-12 21 -12 21 -12.438 18.375 C-13 16 -13 16 -15.062 14.688 C-15.702 14.461 -16.341 14.234 -17 14 C-17 13.01 -17 12.02 -17 11 C-13.7 11.33 -10.4 11.66 -7 12 C-6.67 10.35 -6.34 8.7 -6 7 C-6.825 6.67 -6.825 6.67 -11 5 C-10.67 3.68 -10.34 2.36 -10 1 C-6.62 -0.04 -3.522 -0.08 0 0 Z " fill="#0C2614" transform="translate(164,125)"/>
<path d="M0 0 C1.667 0.667 3.333 1.333 5 2 C5.907 2.309 6.815 2.619 7.75 2.938 C8.493 3.288 9.235 3.639 10 4 C12.433 11.3 11.45 18.777 8.332 25.707 C5.042 31.371 0.245 35.877 -6 38 C-9.02 38.219 -11.98 38.181 -15 38 C-15 37.34 -15 36.68 -15 36 C-13.121 34.853 -11.194 33.783 -9.25 32.75 C-3.044 29.241 -0.267 26.802 2 20 C2.121 17.544 2.175 15.084 2.188 12.625 C2.195 11.971 2.195 11.971 2.23 8.664 C2.016 5.262 1.481 3.033 0 0 Z " fill="#7719B5" transform="translate(125,155)"/>
<path d="M0 0 C0.66 0.33 1.32 0.66 2 1 C0.68 2.65 -0.64 4.3 -2 6 C-1.34 6 -0.68 6 0 6 C2.729 12.14 3.65 17.277 3 24 C1.745 26.511 0.499 26.871 -2 28 C-1.34 28.66 -0.68 29.32 0 30 C-0.536 30.289 -0.536 30.289 -3.25 31.75 C-6.319 33.486 -8.547 35.456 -11 38 C-11.66 38 -12.32 38 -13 38 C-12.002 35.007 -11.384 33.305 -8.875 31.312 C-6.26 28.087 -6.571 25.6 -6.727 21.551 C-7.09 18.16 -7.881 15.218 -9 12 C-12.63 12 -16.26 12 -20 12 C-20 11.34 -20 10.68 -20 10 C-19.131 9.685 -18.262 9.371 -17.367 9.047 C-4.132 4.132 -4.132 4.132 0 0 Z " fill="#050F0A" transform="translate(180,147)"/>
<path d="M0 0 C0.66 0 1.32 0 2 0 C2.426 4.446 1.411 6.384 -1.375 9.812 C-1.688 10.208 -1.688 10.208 -3.273 12.207 C-3.843 12.799 -4.413 13.39 -5 14 C-5.66 14 -6.32 14 -7 14 C-6.876 14.928 -6.752 15.856 -6.625 16.812 C-6.611 23.602 -11.21 30.496 -15.875 35.188 C-16.576 35.786 -17.278 36.384 -18 37 C-17.673 37.95 -17.345 38.9 -17.008 39.879 C-15.67 44.561 -15.779 49.103 -15.875 53.938 C-15.884 54.812 -15.893 55.687 -15.902 56.588 C-15.926 58.725 -15.962 60.863 -16 63 C-18.31 63 -20.62 63 -23 63 C-23.33 62.34 -23.66 61.68 -24 61 C-23.175 60.835 -23.175 60.835 -19 60 C-18.789 52.956 -18.92 46.759 -21 40 C-21.495 40.165 -21.495 40.165 -24 41 C-22.441 37.544 -20.365 34.752 -18.062 31.75 C-11.138 22.221 -10.184 13.476 -9 2 C-8.34 2 -7.68 2 -7 2 C-7 4.31 -7 6.62 -7 9 C-4.036 6.192 -1.555 3.817 0 0 Z " fill="#050606" transform="translate(201,113)"/>
<path d="M0 0 C16.727 7.145 26.275 28.128 34.055 43.449 C34.489 43.367 34.489 43.367 36.688 42.953 C39.839 42.482 42.749 42.348 45.93 42.387 C46.896 42.396 47.863 42.405 48.859 42.414 C49.584 42.426 50.308 42.437 51.055 42.449 C51.055 42.779 51.055 43.109 51.055 43.449 C50.627 43.516 50.627 43.516 48.465 43.852 C47.36 44.028 46.255 44.205 45.117 44.387 C44.015 44.561 42.913 44.735 41.777 44.914 C39.055 45.449 39.055 45.449 38.055 46.449 C36.389 46.49 34.721 46.492 33.055 46.449 C32.509 45.433 31.964 44.418 31.402 43.371 C26.559 34.479 21.42 26.352 15.055 18.449 C14.521 17.762 13.987 17.075 13.438 16.367 C9.327 11.268 4.346 6.546 -1.945 4.449 C-3.588 4.331 -5.236 4.274 -6.883 4.262 C-7.31 4.255 -7.31 4.255 -9.473 4.219 C-12.084 4.462 -13.7 5.131 -15.945 6.449 C-12.927 -0.844 -7.246 -2.051 0 0 Z " fill="#80D88D" transform="translate(98.9453125,44.55078125)"/>
<path d="M0 0 C7.59 0 15.18 0 23 0 C23.66 1.65 24.32 3.3 25 5 C24.175 5.124 23.35 5.248 22.5 5.375 C19 6 19 6 15.5 7.062 C8.043 8.995 -0.532 8.758 -8 7 C-8 8.98 -8 10.96 -8 13 C-8.33 13 -8.66 13 -9 13 C-9 9.37 -9 5.74 -9 2 C-6.03 2 -3.06 2 0 2 C0 1.34 0 0.68 0 0 Z " fill="#209846" transform="translate(148,158)"/>
<path d="M0 0 C2.353 0.746 4.409 1.616 6.562 2.812 C5.348 5.342 4.054 7.583 2.5 9.938 C-0.064 14.312 -0.237 18.834 -0.438 23.812 C-7.188 22.062 -7.188 22.062 -9.438 19.812 C-9.107 13.536 -8.075 6.04 -3.988 1.039 C-2.438 -0.188 -2.438 -0.188 0 0 Z " fill="#7819B6" transform="translate(85.4375,155.1875)"/>
<path d="M0 0 C7.544 3.695 11.435 9.891 14.148 17.626 C17.022 26.275 18.151 33.827 18.062 42.875 C18.058 43.754 18.053 44.633 18.049 45.539 C18.037 47.693 18.019 49.846 18 52 C17.67 52 17.34 52 17 52 C16.818 51.013 16.636 50.025 16.449 49.008 C16.198 47.726 15.946 46.445 15.688 45.125 C15.444 43.849 15.2 42.573 14.949 41.258 C14 38 14 38 11 36 C11.66 35.34 12.32 34.68 13 34 C13.827 25.666 9.935 17.13 6 10 C1.885 5.443 1.885 5.443 -1 4 C-4.673 3.866 -7.499 3.833 -11 5 C-8.514 -0.504 -5.934 -0.494 0 0 Z " fill="#84DC90" transform="translate(149,34)"/>
<path d="M0 0 C0.99 0 1.98 0 3 0 C3.511 1.538 4.008 3.081 4.5 4.625 C4.778 5.484 5.057 6.342 5.344 7.227 C6.056 10.237 6.108 12.917 6 16 C5.578 15.928 5.578 15.928 3.445 15.562 C2.897 15.47 2.897 15.47 0.125 15 C-0.966 14.814 -2.056 14.629 -3.18 14.438 C-6 14 -6 14 -8 14 C-8 14.66 -8 15.32 -8 16 C-8.66 15.67 -9.32 15.34 -10 15 C-10.52 12.82 -10.52 12.82 -10.812 10.125 C-10.922 9.241 -11.032 8.356 -11.145 7.445 C-11 5 -11 5 -9.512 3.18 C-9.013 2.79 -8.514 2.401 -8 2 C-7.175 2.66 -7.175 2.66 -3 6 C-3.33 5.01 -3.66 4.02 -4 3 C-3.01 2.67 -2.02 2.34 -1 2 C-0.67 1.34 -0.34 0.68 0 0 Z " fill="#32CF6B" transform="translate(157,53)"/>
<path d="M0 0 C2.105 0.114 4.209 0.242 6.312 0.375 C7.484 0.445 8.656 0.514 9.863 0.586 C13 1 13 1 16 3 C15.67 5.31 15.34 7.62 15 10 C9.704 12.568 5.189 12.637 -0.438 11 C-1.283 10.67 -2.129 10.34 -3 10 C-3 7 -3 7 -1 5 C-0.375 2.375 -0.375 2.375 0 0 Z " fill="#3E0F68" transform="translate(94,193)"/>
<path d="M0 0 C3.062 0.562 3.062 0.562 5.438 2.062 C7.403 5.087 7.762 7.087 7.582 10.652 C7.062 12.562 7.062 12.562 4.375 15.125 C0.822 16.667 -0.38 16.909 -3.938 15.562 C-4.927 14.903 -5.918 14.243 -6.938 13.562 C-5.884 1.127 -5.884 1.127 0 0 Z " fill="#7219B1" transform="translate(95.9375,139.4375)"/>
<path d="M0 0 C2.182 3.272 2.406 5.034 2.875 8.875 C3.637 13.669 4.151 16.759 8 20 C14.991 24.28 20.922 25.137 29 25 C29 25.66 29 26.32 29 27 C27.02 27 25.04 27 23 27 C23 27.66 23 28.32 23 29 C15.263 29.461 8.739 26.178 2.891 21.207 C-1.119 16.577 -1.592 12.528 -1.309 6.516 C-1.033 4.266 -0.616 2.178 0 0 Z " fill="#17090D" transform="translate(76,179)"/>
<path d="M0 0 C5.016 1.859 7.023 8.268 9.203 12.816 C9.863 14.136 10.523 15.456 11.203 16.816 C7.573 16.816 3.943 16.816 0.203 16.816 C0.09 16.136 0.09 16.136 -0.484 12.691 C-1.534 7.843 -3.367 5.337 -6.797 1.816 C-4.923 -0.058 -2.509 0.005 0 0 Z " fill="#400E6C" transform="translate(105.796875,134.18359375)"/>
<path d="M0 0 C2.375 1.5 2.375 1.5 4 4 C4.609 6.994 4.87 9.95 5 13 C7.31 13.66 9.62 14.32 12 15 C11.01 15.66 10.02 16.32 9 17 C8.67 17.99 8.34 18.98 8 20 C8 19.34 8 18.68 8 18 C4.7 17.67 1.4 17.34 -2 17 C-1 13 -1 13 0 11 C0.125 7.938 0.125 7.938 0 5 C-1 4 -1 4 -3.938 3.812 C-7 4 -7 4 -9 6 C-9.625 8.625 -9.625 8.625 -10 11 C-10.33 9.68 -10.66 8.36 -11 7 C-11.66 7 -12.32 7 -13 7 C-12.108 4.251 -11.256 2.284 -9.312 0.125 C-5.861 -1.554 -3.649 -0.977 0 0 Z " fill="#0A0901" transform="translate(214,106)"/>
<path d="M0 0 C2.729 6.14 3.65 11.277 3 18 C2.67 18.66 2.34 19.32 2 20 C-0.562 20.625 -0.562 20.625 -3 21 C-3.133 20.036 -3.266 19.072 -3.402 18.078 C-3.579 16.815 -3.756 15.552 -3.938 14.25 C-4.112 12.997 -4.286 11.744 -4.465 10.453 C-4.86 7.9 -5.304 5.481 -6 3 C-2.25 0 -2.25 0 0 0 Z " fill="#791BB8" transform="translate(180,153)"/>
<path d="M0 0 C0.33 0.66 0.66 1.32 1 2 C5.112 2.674 8.83 3 13 3 C13.33 3.66 13.66 4.32 14 5 C14.99 4.67 15.98 4.34 17 4 C17.969 4.165 18.939 4.33 19.938 4.5 C23 5 23 5 24.863 4.379 C27.943 3.833 29.538 4.974 32.25 6.438 C33.142 6.911 34.034 7.384 34.953 7.871 C35.629 8.244 36.304 8.616 37 9 C36.01 9.66 35.02 10.32 34 11 C33.835 10.835 33.835 10.835 33 10 C30.341 9.626 27.696 9.308 25.027 9.027 C24.23 8.94 23.432 8.853 22.61 8.763 C20.053 8.483 17.495 8.21 14.938 7.938 C13.208 7.75 11.478 7.562 9.748 7.373 C5.499 6.911 1.25 6.454 -3 6 C-3 4.68 -3 3.36 -3 2 C-2.01 1.34 -1.02 0.68 0 0 Z " fill="#FE6E07" transform="translate(218,50)"/>
<path d="M0 0 C1.187 2.89 0.989 4.034 -0.031 7.059 C-1.009 9.309 -1.989 11.559 -2.969 13.809 C-4.053 17.164 -4.171 18.714 -3 22 C-0.938 23.812 -0.938 23.812 1 25 C-0.32 25.66 -0.32 25.66 -7 29 C-7.727 27.258 -8.431 25.506 -9.125 23.75 C-9.519 22.775 -9.914 21.801 -10.32 20.797 C-11 18 -11 18 -10.301 15.883 C-8.94 13.914 -7.545 12.004 -6.062 10.125 C-3.597 6.906 -1.671 3.713 0 0 Z " fill="#1F9744" transform="translate(193,134)"/>
<path d="M0 0 C5.766 2.554 9.782 6.775 13.984 11.379 C13.654 12.039 13.324 12.699 12.984 13.379 C9.196 11.625 6.156 9.285 2.887 6.719 C-0.33 4.453 -3.13 4.22 -6.953 4.191 C-7.38 4.184 -7.38 4.184 -9.543 4.148 C-12.155 4.392 -13.771 5.061 -16.016 6.379 C-13.004 -0.9 -7.223 -2.226 0 0 Z " fill="#83DA8F" transform="translate(99.015625,44.62109375)"/>
<path d="M0 0 C2.31 0.66 4.62 1.32 7 2 C3.516 6.51 0.569 10.144 -5 12 C-8.02 12.218 -10.979 12.181 -14 12 C-14 11.34 -14 10.68 -14 10 C-12.084 8.784 -10.116 7.651 -8.125 6.562 C-2.221 3.331 -2.221 3.331 0 0 Z " fill="#62129A" transform="translate(124,181)"/>
<path d="M0 0 C9.962 4.637 16.658 10.14 21.043 20.453 C22.959 26.174 23.85 31.984 23 38 C22.34 38.99 21.68 39.98 21 41 C20.963 40.166 20.925 39.332 20.887 38.473 C20.188 26.514 18.05 17.744 9.195 9.273 C6.734 7.129 4.215 5.154 1.562 3.25 C1.047 2.838 0.531 2.425 0 2 C0 1.34 0 0.68 0 0 Z " fill="#6ECA7F" transform="translate(169,89)"/>
<path d="M0 0 C0.66 0 1.32 0 2 0 C1.125 3.875 1.125 3.875 0 5 C-0.202 7.257 -0.319 9.51 -0.426 11.773 C-1 14 -1 14 -2.715 15.777 C-5.45 17.241 -7.169 17.309 -10.25 17.188 C-11.142 17.16 -12.034 17.133 -12.953 17.105 C-13.629 17.071 -14.304 17.036 -15 17 C-15 16.34 -15 15.68 -15 15 C-13.185 14.67 -13.185 14.67 -4 13 C-4 10.69 -4 8.38 -4 6 C-5.65 6 -7.3 6 -9 6 C-9.33 6.66 -9.66 7.32 -10 8 C-10 7.34 -10 6.68 -10 6 C-10.66 5.67 -11.32 5.34 -12 5 C-9.349 2.349 -7.486 2.609 -3.875 2.344 C-2 2 -2 2 0 0 Z " fill="#060B07" transform="translate(170,133)"/>
<path d="M0 0 C4.427 1.353 6.363 3.233 9 7 C10.983 10.967 10.528 15.302 9.246 19.422 C7.526 23.549 6.105 26.801 2 29 C2.33 26.69 2.66 24.38 3 22 C3.66 22 4.32 22 5 22 C4.67 21.01 4.34 20.02 4 19 C4.33 18.257 4.66 17.515 5 16.75 C6.351 13.034 6.019 10.803 5 7 C2.438 4.188 2.438 4.188 0 2 C0 1.34 0 0.68 0 0 Z " fill="#1C8C3D" transform="translate(116,154)"/>
<path d="M0 0 C5.875 0.875 5.875 0.875 7 2 C7.072 3.519 7.084 5.042 7.062 6.562 C7.053 7.389 7.044 8.215 7.035 9.066 C7.029 9.385 7.029 9.385 7 11 C2.25 12 2.25 12 0 12 C0 8.04 0 4.08 0 0 Z " fill="#8F22CF" transform="translate(129,162)"/>
<path d="M0 0 C0.66 0.33 1.32 0.66 2 1 C-6.25 9.25 -14.5 17.5 -23 26 C-23.66 25.67 -24.32 25.34 -25 25 C-17.6 15.389 -9.534 7.528 0 0 Z " fill="#E6A400" transform="translate(64,33)"/>
<path d="M0 0 C4.051 0.259 5.543 0.304 9 -2 C8.688 0.375 8.688 0.375 8 3 C4.443 5.371 3.195 5.484 -1 5 C-2.831 4.089 -4.524 3.047 -6.254 1.957 C-8.743 0.593 -11.202 0.273 -14 0 C-14 -0.33 -14 -0.66 -14 -1 C-9.236 -2.299 -4.483 -2.242 0 0 Z " fill="#43960C" transform="translate(231,266)"/>
<path d="M0 0 C0 2.31 0 4.62 0 7 C-3.215 8.607 -6.436 8.057 -10 8 C-10.33 6.02 -10.66 4.04 -11 2 C-7.177 0.577 -4.087 -0.24 0 0 Z " fill="#E7E3DB" transform="translate(166,139)"/>
<path d="M0 0 C0.688 1.812 0.688 1.812 1 4 C-0.312 5.5 -0.312 5.5 -2 7 C-3.188 9.188 -3.188 9.188 -4 11 C-4.33 9.68 -4.66 8.36 -5 7 C-5.309 6.928 -5.309 6.928 -6.875 6.562 C-9 6 -9 6 -11 5 C-10.67 3.68 -10.34 2.36 -10 1 C-6.62 -0.04 -3.522 -0.08 0 0 Z " fill="#030F06" transform="translate(164,125)"/>
<path d="M0 0 C2.562 1.75 2.562 1.75 4 4 C3.75 6.25 3.75 6.25 3 8 C2.34 8 1.68 8 1 8 C-0.625 6 -0.625 6 -2 4 C-4.375 4.188 -4.375 4.188 -7 5 C-8.312 7.562 -8.312 7.562 -9 10 C-9.99 9.67 -10.98 9.34 -12 9 C-11.678 6.103 -11.386 3.681 -9.938 1.125 C-6.765 -0.717 -3.511 -0.642 0 0 Z " fill="#051A0B" transform="translate(143,117)"/>
<path d="M0 0 C2.875 2.312 2.875 2.312 5 5 C5 5.99 5 6.98 5 8 C4.01 8 3.02 8 2 8 C1.34 7.01 0.68 6.02 0 5 C-3.125 4.812 -3.125 4.812 -6 5 C-6.66 6.65 -7.32 8.3 -8 10 C-8.66 10 -9.32 10 -10 10 C-10.322 6.463 -10.413 4.604 -8.375 1.625 C-5.25 -0.513 -3.718 -0.683 0 0 Z " fill="#071E0D" transform="translate(178,111)"/>
<path d="M0 0 C0.33 0 0.66 0 1 0 C1.168 2.917 1.334 5.833 1.5 8.75 C1.548 9.575 1.595 10.4 1.645 11.25 C1.69 12.049 1.735 12.848 1.781 13.672 C1.802 14.038 1.802 14.038 1.908 15.894 C1.997 17.927 2 19.964 2 22 C0.066 23.922 0.066 23.922 -2.438 25.75 C-3.261 26.364 -4.085 26.977 -4.934 27.609 C-7 29 -7 29 -8 29 C-8 27.02 -8 25.04 -8 23 C-7.216 22.732 -6.433 22.464 -5.625 22.188 C-3 21 -3 21 -1 18 C-0.681 16.007 -0.681 16.007 -0.586 13.77 C-0.567 13.368 -0.567 13.368 -0.469 11.338 C-0.438 10.505 -0.407 9.671 -0.375 8.812 C-0.356 8.39 -0.356 8.39 -0.258 6.252 C-0.164 4.168 -0.081 2.084 0 0 Z " fill="#E76900" transform="translate(243,251)"/>
<path d="M0 0 C0 0.66 0 1.32 0 2 C-0.629 2.075 -1.258 2.15 -1.906 2.227 C-9.498 3.393 -14.763 5.885 -19.57 11.996 C-21.913 15.537 -23.597 18.697 -24 23 C-24.33 23 -24.66 23 -25 23 C-24.835 16.396 -23.799 11.72 -19 7 C-12.644 2.06 -8.166 -0.154 0 0 Z " fill="#68C77B" transform="translate(113,154)"/>
<path d="M0 0 C0.33 0 0.66 0 1 0 C1.049 0.843 1.098 1.686 1.148 2.555 C1.223 3.65 1.298 4.746 1.375 5.875 C1.445 6.966 1.514 8.056 1.586 9.18 C2 12 2 12 4 14 C8.594 16.567 11.999 15.848 17 15 C14.116 17.884 11.989 19.318 7.938 19.5 C4 19 4 19 1.77 17.453 C-0.64 14.112 -0.444 11.199 -0.25 7.25 C-0.232 6.553 -0.214 5.855 -0.195 5.137 C-0.148 3.424 -0.077 1.712 0 0 Z " fill="#42890A" transform="translate(70,252)"/>
<path d="M0 0 C3 0.25 3 0.25 5 2.25 C4.67 3.24 4.34 4.23 4 5.25 C3.34 4.59 2.68 3.93 2 3.25 C-0.375 3.125 -0.375 3.125 -3 4.25 C-4.133 6.092 -4.954 7.992 -5.82 9.973 C-7.871 13.931 -10.954 17.032 -14 20.25 C-14.33 19.59 -14.66 18.93 -15 18.25 C-14.446 17.598 -13.891 16.945 -13.32 16.273 C-12.596 15.399 -11.871 14.525 -11.125 13.625 C-10.406 12.766 -9.686 11.908 -8.945 11.023 C-6.924 8.142 -6.038 5.588 -5 2.25 C-3 0.25 -3 0.25 0 0 Z " fill="#6DCF81" transform="translate(210,108.75)"/>
<path d="M0 0 C0.33 0 0.66 0 1 0 C2.109 5.329 2.115 10.463 2.062 15.875 C2.058 16.754 2.053 17.633 2.049 18.539 C2.037 20.693 2.019 22.846 2 25 C1.67 25 1.34 25 1 25 C0.818 24.013 0.636 23.025 0.449 22.008 C0.198 20.726 -0.054 19.445 -0.312 18.125 C-0.556 16.849 -0.8 15.573 -1.051 14.258 C-2 11 -2 11 -5 9 C-4.361 8.443 -3.721 7.886 -3.062 7.312 C-0.803 4.779 -0.369 3.317 0 0 Z " fill="#6DD383" transform="translate(165,61)"/>
<path d="M0 0 C0.33 0.99 0.66 1.98 1 3 C1.66 3 2.32 3 3 3 C3.103 3.32 3.103 3.32 3.625 4.938 C5 7 5 7 8.125 7.75 C9.074 7.832 10.023 7.915 11 8 C10.01 8.66 9.02 9.32 8 10 C7.67 10.99 7.34 11.98 7 13 C7 12.34 7 11.68 7 11 C3.7 10.67 0.4 10.34 -3 10 C-2.147 6.588 -1.134 3.325 0 0 Z " fill="#0D1F12" transform="translate(215,113)"/>
<path d="M0 0 C0.66 0 1.32 0 2 0 C1.928 0.309 1.928 0.309 1.562 1.875 C0.779 6.225 0.402 10.6 0 15 C-0.33 15 -0.66 15 -1 15 C-1 12.69 -1 10.38 -1 8 C-3.31 8.66 -5.62 9.32 -8 10 C-7.875 7.75 -7.875 7.75 -7 5 C-4 2.75 -4 2.75 -1 1 C-0.67 0.67 -0.34 0.34 0 0 Z " fill="#081A0A" transform="translate(168,198)"/>
<path d="M0 0 C-0.99 0.66 -1.98 1.32 -3 2 C-4.562 4.375 -4.562 4.375 -6 7 C-6.347 7.596 -6.694 8.191 -7.051 8.805 C-8.215 11.496 -8.416 13.831 -8.625 16.75 C-8.7 17.735 -8.775 18.72 -8.852 19.734 C-8.876 20.108 -8.876 20.108 -9 22 C-9.33 22 -9.66 22 -10 22 C-10.108 19.27 -10.187 16.544 -10.25 13.812 C-10.284 13.044 -10.317 12.275 -10.352 11.482 C-10.421 7.457 -10.318 5.502 -8.109 2.012 C-5.031 -0.924 -3.972 -1.192 0 0 Z " fill="#1C0F00" transform="translate(77,245)"/>
<path d="M0 0 C1.667 0.667 3.333 1.333 5 2 C5.907 2.268 6.815 2.536 7.75 2.812 C10 4 10 4 10.812 6.625 C10.874 7.409 10.936 8.192 11 9 C8.69 8.34 6.38 7.68 4 7 C4 10.3 4 13.6 4 17 C3.67 17 3.34 17 3 17 C2.976 16.596 2.976 16.596 2.852 14.551 C2.814 14.016 2.814 14.016 2.625 11.312 C2.555 10.257 2.486 9.201 2.414 8.113 C2.012 5.093 1.259 2.759 0 0 Z " fill="#420E69" transform="translate(125,155)"/>
<path d="M0 0 C0.071 0.624 0.142 1.248 0.215 1.891 C1 4 1 4 3.066 5.047 C3.89 5.279 4.714 5.511 5.562 5.75 C6.389 5.992 7.215 6.235 8.066 6.484 C8.704 6.655 9.343 6.825 10 7 C9.01 8.32 8.02 9.64 7 11 C6.67 10.01 6.34 9.02 6 8 C5.639 8.01 5.639 8.01 3.812 8.062 C1.081 8.002 -1.343 7.607 -4 7 C-4 4 -4 4 -2 1.812 C-1.34 1.214 -0.68 0.616 0 0 Z " fill="#070109" transform="translate(87,149)"/>
<path d="M0 0 C2.875 1.5 2.875 1.5 5 3 C4.67 3.99 4.34 4.98 4 6 C3.01 5.34 2.02 4.68 1 4 C-4.522 3.204 -8.378 3.779 -13 7 C-13.66 6.67 -14.32 6.34 -15 6 C-9.973 1.643 -6.965 -0.557 0 0 Z " fill="#6FCC7F" transform="translate(186,176)"/>
<path d="M0 0 C3.96 0 7.92 0 12 0 C12.66 1.65 13.32 3.3 14 5 C12.515 5.165 12.515 5.165 5 6 C4.34 5.01 3.68 4.02 3 3 C2.01 2.67 1.02 2.34 0 2 C0 1.34 0 0.68 0 0 Z " fill="#1D8F3F" transform="translate(159,158)"/>
<path d="M0 0 C4.79 0.266 7.273 1.143 11 4 C13.75 4.188 13.75 4.188 16 4 C14 6 14 6 10.375 6.375 C5.594 6.287 2.042 4.408 -2 2 C-1.34 1.34 -0.68 0.68 0 0 Z " fill="#42900C" transform="translate(98,265)"/>
<path d="M0 0 C3.36 5.04 4.293 9.997 4 16 C3.34 16 2.68 16 2 16 C1.67 16.66 1.34 17.32 1 18 C-0.584 11.61 -1.203 6.496 0 0 Z " fill="#130D02" transform="translate(165,49)"/>
<path d="M0 0 C3.96 0.33 7.92 0.66 12 1 C12.33 2.65 12.66 4.3 13 6 C9.04 5.67 5.08 5.34 1 5 C1.33 4.01 1.66 3.02 2 2 C1.34 1.34 0.68 0.68 0 0 Z " fill="#FFE7D1" transform="translate(232,57)"/>
<path d="M0 0 C0 0.66 0 1.32 0 2 C-0.664 2.049 -1.328 2.098 -2.012 2.148 C-10.782 2.891 -10.782 2.891 -15 5 C-15 3.35 -15 1.7 -15 0 C-9.142 -2.197 -5.959 -1.882 0 0 Z " fill="#EB6300" transform="translate(151,29)"/>
<path d="M0 0 C0.66 0.33 1.32 0.66 2 1 C1.381 2.011 0.763 3.021 0.125 4.062 C-1.929 7.632 -3.023 11.009 -4 15 C-4.66 14.34 -5.32 13.68 -6 13 C-6.33 13.165 -6.33 13.165 -8 14 C-6.383 7.967 -4.833 4.049 0 0 Z " fill="#1E0D0C" transform="translate(82,152)"/>
<path d="M0 0 C0.557 0.021 0.557 0.021 3.375 0.125 C3.705 1.115 4.035 2.105 4.375 3.125 C5.365 3.455 6.355 3.785 7.375 4.125 C6.688 4.174 6.001 4.223 5.293 4.273 C4.392 4.348 3.491 4.423 2.562 4.5 C1.669 4.57 0.776 4.639 -0.145 4.711 C-2.625 5.125 -2.625 5.125 -5.625 7.125 C-5.75 4.75 -5.75 4.75 -5.625 2.125 C-3.625 0.125 -3.625 0.125 0 0 Z " fill="#ABD90F" transform="translate(76.625,247.875)"/>
<path d="M0 0 C0.33 0.66 0.66 1.32 1 2 C1.99 1.67 2.98 1.34 4 1 C1.089 10.629 1.089 10.629 -3 13.312 C-5 14 -5 14 -8 14 C-7.795 13.746 -7.795 13.746 -6.758 12.461 C-3.607 8.436 -1.262 5.048 0 0 Z " fill="#07190C" transform="translate(190,131)"/>
<path d="M0 0 C2.051 0.033 4.102 0.065 6.152 0.098 C5.822 3.068 5.492 6.038 5.152 9.098 C4.492 9.098 3.832 9.098 3.152 9.098 C1.645 7.348 1.645 7.348 0.027 5.098 C-0.511 4.355 -1.05 3.613 -1.605 2.848 C-1.81 2.559 -1.81 2.559 -2.848 1.098 C-1.848 0.098 -1.848 0.098 0 0 Z " fill="#9F2BD2" transform="translate(101.84765625,134.90234375)"/>
<path d="M0 0 C6.506 3.029 11.921 5.881 16 12 C15.67 12.99 15.34 13.98 15 15 C14.42 14.397 13.84 13.793 13.242 13.172 C6.075 5.839 6.075 5.839 2.438 3.562 C1.633 3.047 0.829 2.531 0 2 C0 1.34 0 0.68 0 0 Z " fill="#76DA89" transform="translate(169,89)"/>
<path d="M0 0 C2.011 2.56 3.628 5.046 5 8 C5.382 7.918 5.382 7.918 7.312 7.5 C12.221 6.834 17.054 6.921 22 7 C22 7.33 22 7.66 22 8 C21.145 8.133 20.291 8.266 19.41 8.402 C18.305 8.579 17.201 8.756 16.062 8.938 C14.96 9.112 13.858 9.286 12.723 9.465 C10 10 10 10 9 11 C7.334 11.041 5.666 11.043 4 11 C0 4.5 0 4.5 0 0 Z " fill="#6FCF81" transform="translate(128,80)"/>
<path d="M0 0 C1.945 2.918 2.453 4.625 3 8 C2.01 8 1.02 8 0 8 C0.33 10.31 0.66 12.62 1 15 C0.01 15 -0.98 15 -2 15 C-2.33 12.69 -2.66 10.38 -3 8 C-2.34 8 -1.68 8 -1 8 C-1.206 7.237 -1.412 6.474 -1.625 5.688 C-2 3 -2 3 0 0 Z " fill="#6A17A5" transform="translate(108,136)"/>
<path d="M0 0 C3 3.789 5.475 7.888 8 12 C7.34 12 6.68 12 6 12 C5.67 12.66 5.34 13.32 5 14 C-1.039 7.103 -1.039 7.103 -0.875 2.5 C-0.586 1.675 -0.297 0.85 0 0 Z " fill="#07120D" transform="translate(111,135)"/>
<path d="M0 0 C3.26 3.17 6.222 6.399 9 10 C8.34 10.33 8.34 10.33 5 12 C4.588 11.216 4.175 10.433 3.75 9.625 C1.961 6.941 0.95 6.119 -2 5 C-1.34 3.35 -0.68 1.7 0 0 Z " fill="#38D16D" transform="translate(108,56)"/>
<path d="M0 0 C-1.211 3.633 -2.794 4.43 -6.078 6.215 C-8.775 7.316 -11.131 7.28 -14 7 C-13.67 6.01 -13.34 5.02 -13 4 C-10.566 2.832 -10.566 2.832 -7.562 1.812 C-6.574 1.468 -5.585 1.124 -4.566 0.77 C-2 0 -2 0 0 0 Z " fill="#1E9541" transform="translate(127,193)"/>
<path d="M0 0 C0.043 2 0.041 4 0 6 C-1 7 -1 7 -3.066 7.098 C-3.89 7.086 -4.714 7.074 -5.562 7.062 C-6.389 7.053 -7.215 7.044 -8.066 7.035 C-8.704 7.024 -9.343 7.012 -10 7 C-10 6.34 -10 5.68 -10 5 C-8.522 4.164 -7.043 3.331 -5.562 2.5 C-5.151 2.268 -5.151 2.268 -3.066 1.094 C-1 0 -1 0 0 0 Z " fill="#430F71" transform="translate(120,186)"/>
<path d="M0 0 C1.65 0.33 3.3 0.66 5 1 C5 3.64 5 6.28 5 9 C2.69 8.34 0.38 7.68 -2 7 C-2 6.34 -2 5.68 -2 5 C-1.34 4.67 -0.68 4.34 0 4 C0 2.68 0 1.36 0 0 Z " fill="#511180" transform="translate(80,170)"/>
<path d="M0 0 C6.705 4.937 6.705 4.937 7.938 9.375 C7.958 10.241 7.979 11.107 8 12 C7.34 12 6.68 12 6 12 C5.67 13.32 5.34 14.64 5 16 C4.897 14.742 4.794 13.484 4.688 12.188 C4.36 9.647 4.15 8.233 2.75 6.062 C0.545 4.724 -1.459 4.343 -4 4 C-2.68 3.67 -1.36 3.34 0 3 C0 2.01 0 1.02 0 0 Z " fill="#320C4F" transform="translate(98,136)"/>
<path d="M0 0 C1.437 -0.054 2.875 -0.093 4.312 -0.125 C5.113 -0.148 5.914 -0.171 6.738 -0.195 C9 0 9 0 12 2 C11.67 4.31 11.34 6.62 11 9 C10.34 9 9.68 9 9 9 C8.443 7.866 7.886 6.731 7.312 5.562 C5.382 2.13 5.382 2.13 2.25 1.062 C1.507 1.042 0.765 1.021 0 1 C0 0.67 0 0.34 0 0 Z " fill="#350D5B" transform="translate(98,194)"/>
<path d="M0 0 C0.33 0 0.66 0 1 0 C1 4.95 1 9.9 1 15 C0.67 15.165 0.67 15.165 -1 16 C-2.225 13.55 -2.167 11.858 -2.188 9.125 C-2.202 8.261 -2.216 7.398 -2.23 6.508 C-1.989 3.876 -1.33 2.26 0 0 Z " fill="#080701" transform="translate(134,40)"/>
<path d="M0 0 C2.987 0.498 4.393 1.262 7 3 C9.324 3.394 11.658 3.735 14 4 C14 4.33 14 4.66 14 5 C12.35 5 10.7 5 9 5 C9 5.66 9 6.32 9 7 C4.167 6.586 2.173 4.536 -1 1 C-0.67 0.67 -0.34 0.34 0 0 Z " fill="#0A0E12" transform="translate(89,187)"/>
<path d="M0 0 C2.351 3.527 2.214 5.029 2.125 9.188 C2.107 10.274 2.089 11.361 2.07 12.48 C2.059 12.896 2.059 12.896 2 15 C1.01 15 0.02 15 -1 15 C-1.027 13.25 -1.046 11.5 -1.062 9.75 C-1.074 8.775 -1.086 7.801 -1.098 6.797 C-1.012 4.342 -0.707 2.338 0 0 Z " fill="#1D0E00" transform="translate(76,179)"/>
<path d="M0 0 C2.622 1.049 3.794 1.649 5.25 4.125 C5.498 4.744 5.745 5.363 6 6 C5.34 6 4.68 6 4 6 C4 10.62 4 15.24 4 20 C3.67 20 3.34 20 3 20 C2.963 19.036 2.925 18.072 2.887 17.078 C2.821 15.815 2.755 14.552 2.688 13.25 C2.629 11.997 2.571 10.744 2.512 9.453 C1.995 5.969 1.375 4.521 -1 2 C-0.67 1.34 -0.34 0.68 0 0 Z " fill="#181E02" transform="translate(237,245)"/>
<path d="M0 0 C2.125 0.938 2.125 0.938 4 2 C3.34 2 2.68 2 2 2 C2.33 3.98 2.66 5.96 3 8 C4.98 8 6.96 8 9 8 C9 8.33 9 8.66 9 9 C6.36 9.33 3.72 9.66 1 10 C-1.125 6.812 -1.502 4.735 -2 1 C-1.34 0.67 -0.68 0.34 0 0 Z " fill="#232F25" transform="translate(153,139)"/>
<path d="M0 0 C0.66 0 1.32 0 2 0 C2 1.32 2 2.64 2 4 C3.32 4.33 4.64 4.66 6 5 C6 5.33 6 5.66 6 6 C3.855 6.165 3.855 6.165 -7 7 C-6.67 6.34 -6.34 5.68 -6 5 C-3.438 4.375 -3.438 4.375 -1 4 C-0.67 2.68 -0.34 1.36 0 0 Z " fill="#020A04" transform="translate(144,80)"/>
<path d="M0 0 C-0.598 0.227 -1.196 0.454 -1.812 0.688 C-4.643 2.386 -5.56 4.051 -7 7 C-7.688 9.812 -7.688 9.812 -8 12 C-8.33 10.68 -8.66 9.36 -9 8 C-9.66 8 -10.32 8 -11 8 C-9.047 1.977 -6.48 -0.54 0 0 Z " fill="#24220F" transform="translate(212,105)"/>
<path d="M0 0 C-0.33 3.63 -0.66 7.26 -1 11 C-1.99 11.33 -2.98 11.66 -4 12 C-4.081 10.563 -4.139 9.126 -4.188 7.688 C-4.222 6.887 -4.257 6.086 -4.293 5.262 C-3.984 2.879 -2.86 0 0 0 Z " fill="#120708" transform="translate(77,164)"/>
<path d="M0 0 C4.274 1.583 6.265 4.506 9 8 C5 8 5 8 2.25 6.25 C1.507 5.508 0.765 4.765 0 4 C0 2.68 0 1.36 0 0 Z " fill="#8AE496" transform="translate(104,49)"/>
<path d="M0 0 C0.33 0 0.66 0 1 0 C1.061 1.265 1.121 2.529 1.184 3.832 C1.268 5.492 1.353 7.152 1.438 8.812 C1.477 9.646 1.516 10.479 1.557 11.338 C1.599 12.14 1.64 12.943 1.684 13.77 C1.72 14.508 1.757 15.246 1.795 16.007 C2 18 2 18 3 21 C1.02 21.33 -0.96 21.66 -3 22 C-2.679 21.429 -2.357 20.859 -2.026 20.271 C-0.952 17.894 -0.697 16.259 -0.586 13.672 C-0.547 12.873 -0.509 12.073 -0.469 11.25 C-0.438 10.425 -0.407 9.6 -0.375 8.75 C-0.336 7.91 -0.298 7.069 -0.258 6.203 C-0.164 4.136 -0.081 2.068 0 0 Z " fill="#B34F00" transform="translate(243,251)"/>
<path d="M0 0 C0.393 -0.003 0.393 -0.003 2.379 -0.016 C4.438 0.25 4.438 0.25 6.438 2.25 C4.67 2.64 2.898 3.012 1.125 3.375 C0.139 3.584 -0.847 3.793 -1.863 4.008 C-4.562 4.25 -4.562 4.25 -7.562 2.25 C-4.428 0.161 -3.588 -0.024 0 0 Z " fill="#4BA510" transform="translate(219.5625,261.75)"/>
<path d="M0 0 C2.869 0.424 4.774 1.482 7.008 3.297 C7.008 3.957 7.008 4.617 7.008 5.297 C6.303 4.969 5.598 4.642 4.871 4.305 C1.769 3.213 -0.532 3.093 -3.805 3.172 C-4.781 3.19 -5.756 3.208 -6.762 3.227 C-7.498 3.25 -8.234 3.273 -8.992 3.297 C-6.256 0.085 -4.24 -0.156 0 0 Z " fill="#6FD181" transform="translate(198.9921875,183.703125)"/>
<path d="M0 0 C1.437 -0.054 2.875 -0.093 4.312 -0.125 C5.113 -0.148 5.914 -0.171 6.738 -0.195 C9 0 9 0 12 2 C11.67 2.66 11.34 3.32 11 4 C7.7 3.67 4.4 3.34 1 3 C0.67 2.01 0.34 1.02 0 0 Z " fill="#FFF5EE" transform="translate(223,57)"/>
<path d="M0 0 C0.33 0 0.66 0 1 0 C1.027 1.625 1.046 3.25 1.062 4.875 C1.074 5.78 1.086 6.685 1.098 7.617 C1 10 1 10 0 12 C-2.562 12.625 -2.562 12.625 -5 13 C-5 11.02 -5 9.04 -5 7 C-4.67 7.66 -4.34 8.32 -4 9 C-2.68 8.67 -1.36 8.34 0 8 C0 5.36 0 2.72 0 0 Z " fill="#57108C" transform="translate(182,161)"/>
<path d="M0 0 C0.33 1.32 0.66 2.64 1 4 C-0.32 4.33 -1.64 4.66 -3 5 C-3 6.98 -3 8.96 -3 11 C-4.414 8.361 -5.372 5.929 -6 3 C-2.25 0 -2.25 0 0 0 Z " fill="#490F78" transform="translate(180,153)"/>
<path d="M0 0 C0.66 0 1.32 0 2 0 C1.125 3.875 1.125 3.875 0 5 C-0.232 6.515 -0.412 8.038 -0.562 9.562 C-0.646 10.389 -0.73 11.215 -0.816 12.066 C-0.877 12.704 -0.938 13.343 -1 14 C-1.33 14 -1.66 14 -2 14 C-2.33 10.7 -2.66 7.4 -3 4 C-4.32 3.67 -5.64 3.34 -7 3 C-6.515 2.845 -6.515 2.845 -4.062 2.062 C-1 1 -1 1 0 0 Z " fill="#092C14" transform="translate(170,133)"/>
<path d="M0 0 C2.352 0.599 4.686 1.269 7 2 C7.33 2.66 7.66 3.32 8 4 C2.39 3.67 -3.22 3.34 -9 3 C-9 2.67 -9 2.34 -9 2 C-6.949 1.772 -4.898 1.544 -2.848 1.316 C-1 1 -1 1 0 0 Z " fill="#FC7B20" transform="translate(233,54)"/>
<path d="M0 0 C0.66 0 1.32 0 2 0 C1.887 1.98 1.759 3.959 1.625 5.938 C1.59 6.489 1.59 6.489 1.414 9.277 C1.277 10.176 1.141 11.074 1 12 C0.67 12.165 0.67 12.165 -1 13 C-1.027 11.021 -1.046 9.042 -1.062 7.062 C-1.074 5.96 -1.086 4.858 -1.098 3.723 C-1 1 -1 1 0 0 Z " fill="#060300" transform="translate(79,50)"/>
<path d="M0 0 C1.603 -0.081 3.208 -0.139 4.812 -0.188 C5.259 -0.205 5.259 -0.205 7.52 -0.293 C10.416 0.049 11.226 0.754 13 3 C12.34 3 11.68 3 11 3 C10.67 3.66 10.34 4.32 10 5 C7.03 4.67 4.06 4.34 1 4 C1 3.67 1 3.34 1 3 C3.64 3 6.28 3 9 3 C9 2.34 9 1.68 9 1 C6.03 1 3.06 1 0 1 C0 0.67 0 0.34 0 0 Z " fill="#171C01" transform="translate(152,266)"/>
<path d="M0 0 C-1.441 3.362 -3.248 5.592 -6 8 C-6.66 8 -7.32 8 -8 8 C-5.189 0 -5.189 0 0 0 Z " fill="#0A1E0E" transform="translate(175,177)"/>
<path d="M0 0 C4.875 0.875 4.875 0.875 6 2 C6.072 3.519 6.084 5.042 6.062 6.562 C6.053 7.389 6.044 8.215 6.035 9.066 C6.029 9.385 6.029 9.385 6 11 C5.67 11 5.34 11 5 11 C4.67 8.69 4.34 6.38 4 4 C3.01 4.33 2.02 4.66 1 5 C0.67 3.35 0.34 1.7 0 0 Z " fill="#7E1EBC" transform="translate(130,162)"/>
<path d="M0 0 C0.33 0.99 0.66 1.98 1 3 C-1.751 3.917 -3.359 4.109 -6.188 4.062 C-6.817 4.052 -6.817 4.052 -10 4 C-10 3.34 -10 2.68 -10 2 C-6.7 1.34 -3.4 0.68 0 0 Z " fill="#040400" transform="translate(180,270)"/>
<path d="M0 0 C0 0.66 0 1.32 0 2 C1.485 2.33 1.485 2.33 9 4 C9 4.33 9 4.66 9 5 C0.965 5.63 0.965 5.63 -3.062 3 C-3.702 2.34 -4.341 1.68 -5 1 C-2 0 -2 0 0 0 Z " fill="#418D0C" transform="translate(168,266)"/>
<path d="M0 0 C0.66 0.33 1.32 0.66 2 1 C0.478 3.629 -0.844 5.844 -3 8 C-3.99 7.67 -4.98 7.34 -6 7 C-6 5.68 -6 4.36 -6 3 C-4.035 1.932 -2.031 0.934 0 0 Z " fill="#0C1B0A" transform="translate(122,225)"/>
<path d="M0 0 C0.986 0.139 1.972 0.278 2.988 0.422 C3.485 0.486 3.485 0.486 6 0.812 C6.759 0.931 7.519 1.05 8.301 1.172 C8.301 1.502 8.301 1.832 8.301 2.172 C7.022 2.296 5.743 2.419 4.426 2.547 C0.551 2.922 0.551 2.922 -1.699 5.172 C-3.824 4.797 -3.824 4.797 -5.699 4.172 C-3.455 0.22 -3.455 0.22 0 0 Z " fill="#1C1B05" transform="translate(137.69921875,211.828125)"/>
<path d="M0 0 C2.875 0.188 2.875 0.188 6 1 C7.375 3.562 7.375 3.562 8 6 C2.25 4.125 2.25 4.125 0 3 C0 2.01 0 1.02 0 0 Z " fill="#430E70" transform="translate(79,181)"/>
<path d="M0 0 C0.99 0.33 1.98 0.66 3 1 C2.67 3.97 2.34 6.94 2 10 C1.34 9.01 0.68 8.02 0 7 C-0.33 7.165 -0.33 7.165 -2 8 C-1.34 5.36 -0.68 2.72 0 0 Z " fill="#250E12" transform="translate(87,143)"/>
<path d="M0 0 C4.75 0.875 4.75 0.875 7 2 C6.67 2.99 6.34 3.98 6 5 C5.01 4.67 4.02 4.34 3 4 C2.67 4.66 2.34 5.32 2 6 C0 3 0 3 0 0 Z " fill="#EA8300" transform="translate(68,272)"/>
<path d="M0 0 C0.33 0 0.66 0 1 0 C1 3.63 1 7.26 1 11 C0.01 11.33 -0.98 11.66 -2 12 C-1.86 10.187 -1.713 8.375 -1.562 6.562 C-1.481 5.553 -1.4 4.544 -1.316 3.504 C-1 1 -1 1 0 0 Z " fill="#000201" transform="translate(138,162)"/>
<path d="M0 0 C0.99 0.165 0.99 0.165 6 1 C6 2.32 6 3.64 6 5 C3.831 4.494 2 4 0 3 C0 2.01 0 1.02 0 0 Z " fill="#A32BD8" transform="translate(85,156)"/>
<path d="M0 0 C1.32 0 2.64 0 4 0 C3.25 5.75 3.25 5.75 1 8 C0.34 8 -0.32 8 -1 8 C-0.67 5.36 -0.34 2.72 0 0 Z " fill="#040501" transform="translate(222,122)"/>
<path d="M0 0 C-0.33 0.99 -0.66 1.98 -1 3 C-4.3 3.66 -7.6 4.32 -11 5 C-8.058 -0.884 -6.238 -0.116 0 0 Z " fill="#76CF86" transform="translate(149,34)"/>
<path d="M0 0 C0.33 0.99 0.66 1.98 1 3 C-0.29 4.376 -1.627 5.708 -3 7 C-3.66 7 -4.32 7 -5 7 C-5 5.68 -5 4.36 -5 3 C-2.5 1.25 -2.5 1.25 0 0 Z " fill="#120D00" transform="translate(241,267)"/>
<path d="M0 0 C0 0.33 0 0.66 0 1 C1.65 1.33 3.3 1.66 5 2 C5 2.33 5 2.66 5 3 C-2.385 3.369 -2.385 3.369 -5.5 1.5 C-5.995 1.005 -6.49 0.51 -7 0 C-4.333 -1.333 -2.833 -0.671 0 0 Z " fill="#408E0B" transform="translate(139,268)"/>
<path d="M0 0 C0.33 0.99 0.66 1.98 1 3 C0.048 4.006 -0.912 5.005 -1.875 6 C-2.409 6.557 -2.942 7.114 -3.492 7.688 C-5 9 -5 9 -7 9 C-5.445 5.183 -2.964 2.808 0 0 Z " fill="#030F06" transform="translate(132,184)"/>
<path d="M0 0 C0.33 0 0.66 0 1 0 C1.33 5.61 1.66 11.22 2 17 C1.01 16.67 0.02 16.34 -1 16 C-0.67 10.72 -0.34 5.44 0 0 Z " fill="#61A86D" transform="translate(167,74)"/>
<path d="M0 0 C0.66 0 1.32 0 2 0 C2 0.99 2 1.98 2 3 C2.99 3.33 3.98 3.66 5 4 C2 6 2 6 -1 6 C-1.99 5.67 -2.98 5.34 -4 5 C-2.68 4.67 -1.36 4.34 0 4 C0 2.68 0 1.36 0 0 Z " fill="#12081E" transform="translate(104,148)"/>
<path d="M0 0 C2.763 0.523 5.326 1.109 8 2 C7.67 3.65 7.34 5.3 7 7 C5.83 6.024 4.664 5.044 3.5 4.062 C2.85 3.517 2.201 2.972 1.531 2.41 C1.026 1.945 0.521 1.479 0 1 C0 0.67 0 0.34 0 0 Z " fill="#1D9140" transform="translate(214,122)"/>
<path d="M0 0 C0.99 0.33 1.98 0.66 3 1 C3.66 4.3 4.32 7.6 5 11 C4.34 11 3.68 11 3 11 C3 8.69 3 6.38 3 4 C2.34 4 1.68 4 1 4 C0.67 4.66 0.34 5.32 0 6 C0 4.02 0 2.04 0 0 Z " fill="#291903" transform="translate(191,111)"/>
<path d="M0 0 C-0.99 0.33 -1.98 0.66 -3 1 C-3 1.66 -3 2.32 -3 3 C-5.64 3 -8.28 3 -11 3 C-8.894 -1.211 -4.117 -0.078 0 0 Z " fill="#080802" transform="translate(99,41)"/>
<path d="M0 0 C-0.33 0.99 -0.66 1.98 -1 3 C-3.64 3 -6.28 3 -9 3 C-9 2.34 -9 1.68 -9 1 C-5.847 0.299 -3.273 0 0 0 Z " fill="#010300" transform="translate(211,271)"/>
<path d="M0 0 C2.64 0 5.28 0 8 0 C8 0.33 8 0.66 8 1 C6.35 1.33 4.7 1.66 3 2 C4.65 2.33 6.3 2.66 8 3 C8 3.33 8 3.66 8 4 C5.03 3.67 2.06 3.34 -1 3 C-0.67 2.01 -0.34 1.02 0 0 Z " fill="#151300" transform="translate(135,271)"/>
<path d="M0 0 C0.33 0 0.66 0 1 0 C0.886 1.647 0.759 3.292 0.625 4.938 C0.59 5.396 0.59 5.396 0.414 7.715 C0.277 8.469 0.141 9.223 0 10 C-0.33 10.165 -0.33 10.165 -2 11 C-2.286 3.571 -2.286 3.571 0 0 Z " fill="#010200" transform="translate(93,222)"/>
<path d="M0 0 C0.33 0.66 0.66 1.32 1 2 C1.66 2.33 2.32 2.66 3 3 C1.515 3.495 1.515 3.495 -6 6 C-2.25 1.125 -2.25 1.125 0 0 Z " fill="#1D9141" transform="translate(107,206)"/>
<path d="M0 0 C-0.33 0.99 -0.66 1.98 -1 3 C-2.98 3 -4.96 3 -7 3 C-6.67 2.01 -6.34 1.02 -6 0 C-3.509 -1.245 -2.589 -0.777 0 0 Z " fill="#1B863A" transform="translate(120,197)"/>
<path d="M0 0 C1.32 1.65 2.64 3.3 4 5 C3.34 5.66 2.68 6.32 2 7 C1.01 6.34 0.02 5.68 -1 5 C-1 4.34 -1 3.68 -1 3 C-1.99 2.67 -2.98 2.34 -4 2 C-2.68 2 -1.36 2 0 2 C0 1.34 0 0.68 0 0 Z " fill="#37D06B" transform="translate(118,68)"/>
<path d="M0 0 C0.763 0.062 1.526 0.124 2.312 0.188 C1.653 0.848 0.993 1.507 0.312 2.188 C1.302 2.848 2.293 3.507 3.312 4.188 C0.343 3.858 -2.627 3.527 -5.688 3.188 C-2.688 0.188 -2.688 0.188 0 0 Z " fill="#161300" transform="translate(107.6875,270.8125)"/>
<path d="M0 0 C0 2.64 0 5.28 0 8 C-0.433 7.381 -0.866 6.762 -1.312 6.125 C-3 4 -3 4 -6 2 C-2.25 0 -2.25 0 0 0 Z " fill="#B35F00" transform="translate(165,206)"/>
<path d="M0 0 C0.66 0.33 1.32 0.66 2 1 C1.34 3.64 0.68 6.28 0 9 C-0.99 8.34 -1.98 7.68 -3 7 C-3 4 -3 4 -1 2 C-0.67 1.34 -0.34 0.68 0 0 Z " fill="#0A1E0D" transform="translate(110,108)"/>
<path d="M0 0 C0.99 0.99 1.98 1.98 3 3 C2.34 4.32 1.68 5.64 1 7 C0.01 6.67 -0.98 6.34 -2 6 C-1.34 4.02 -0.68 2.04 0 0 Z " fill="#6E18AB" transform="translate(80,158)"/>
<path d="M0 0 C0.66 0.165 0.66 0.165 4 1 C4.33 2.65 4.66 4.3 5 6 C3.02 5.34 1.04 4.68 -1 4 C-0.67 2.68 -0.34 1.36 0 0 Z " fill="#511086" transform="translate(131,158)"/>
<path d="M0 0 C2.296 3.445 2.54 5.938 3 10 C2.67 9.01 2.34 8.02 2 7 C1.01 7.33 0.02 7.66 -1 8 C-0.67 5.36 -0.34 2.72 0 0 Z " fill="#351800" transform="translate(165,49)"/>
<path d="M0 0 C0.33 0.99 0.66 1.98 1 3 C-1.64 3 -4.28 3 -7 3 C-7.33 2.34 -7.66 1.68 -8 1 C-2.25 0 -2.25 0 0 0 Z " fill="#030200" transform="translate(145,271)"/>
<path d="M0 0 C0.639 0.248 1.279 0.495 1.938 0.75 C2.268 1.74 2.597 2.73 2.938 3.75 C-1.812 3 -1.812 3 -4.062 0.75 C-2.062 -0.25 -2.062 -0.25 0 0 Z " fill="#428F0C" transform="translate(201.0625,267.25)"/>
<path d="M0 0 C0.33 1.32 0.66 2.64 1 4 C-2.3 3.34 -5.6 2.68 -9 2 C-9 1.67 -9 1.34 -9 1 C-5.847 0.299 -3.273 0 0 0 Z " fill="#3F8C0B" transform="translate(226,264)"/>
<path d="M0 0 C1.32 0.99 2.64 1.98 4 3 C3.67 4.32 3.34 5.64 3 7 C1.68 5.68 0.36 4.36 -1 3 C-0.67 2.01 -0.34 1.02 0 0 Z " fill="#A6D50F" transform="translate(236,248)"/>
<path d="M0 0 C-0.312 1.875 -0.312 1.875 -1 4 C-1.99 4.66 -2.98 5.32 -4 6 C-4.66 5.01 -5.32 4.02 -6 3 C-2.25 0 -2.25 0 0 0 Z " fill="#21A248" transform="translate(102,232)"/>
<path d="M0 0 C0.99 0.33 1.98 0.66 3 1 C3.33 2.98 3.66 4.96 4 7 C3.01 7 2.02 7 1 7 C0.67 4.69 0.34 2.38 0 0 Z " fill="#5E1496" transform="translate(105,144)"/>
<path d="M0 0 C1.98 0 3.96 0 6 0 C5.67 0.99 5.34 1.98 5 3 C3.02 3 1.04 3 -1 3 C-0.67 2.01 -0.34 1.02 0 0 Z " fill="#0D110A" transform="translate(208,106)"/>
<path d="M0 0 C0.33 0.66 0.66 1.32 1 2 C0.01 2.33 -0.98 2.66 -2 3 C-2.33 2.67 -2.66 2.34 -3 2 C-5.328 1.632 -7.662 1.298 -10 1 C-10 0.67 -10 0.34 -10 0 C-6.333 -0.943 -3.647 -1.114 0 0 Z " fill="#FD7617" transform="translate(254,58)"/>
<path d="M0 0 C0.33 0.99 0.66 1.98 1 3 C-0.29 4.376 -1.627 5.708 -3 7 C-3.66 7 -4.32 7 -5 7 C-3.707 4.116 -2.341 2.128 0 0 Z " fill="#110A00" transform="translate(117,233)"/>
<path d="M0 0 C1 3 1 3 0 6 C0 6.99 0 7.98 0 9 C-0.66 9 -1.32 9 -2 9 C-2.66 7.68 -3.32 6.36 -4 5 C-3.34 5 -2.68 5 -2 5 C-1.34 3.35 -0.68 1.7 0 0 Z " fill="#9626CC" transform="translate(107,135)"/>
<path d="M0 0 C0.66 0.33 1.32 0.66 2 1 C1.01 2.98 0.02 4.96 -1 7 C-1.66 7 -2.32 7 -3 7 C-2.25 2.25 -2.25 2.25 0 0 Z " fill="#020F06" transform="translate(171,114)"/>
<path d="M0 0 C0.33 0 0.66 0 1 0 C1 1.65 1 3.3 1 5 C-0.65 5.66 -2.3 6.32 -4 7 C-2.68 4.69 -1.36 2.38 0 0 Z " fill="#F8761A" transform="translate(262,101)"/>
<path d="M0 0 C0 0.66 0 1.32 0 2 C-3.63 1.67 -7.26 1.34 -11 1 C-11 0.67 -11 0.34 -11 0 C-6.982 -0.841 -3.982 -1.054 0 0 Z " fill="#79E28E" transform="translate(100,47)"/>
<path d="M0 0 C1.32 0.66 2.64 1.32 4 2 C4 2.66 4 3.32 4 4 C3.34 4.33 3.34 4.33 0 6 C-1 3 -1 3 0 0 Z " fill="#34CF6B" transform="translate(147,37)"/>
<path d="M0 0 C3.625 -0.188 3.625 -0.188 7 0 C6.67 0.66 6.34 1.32 6 2 C3.351 2.594 0.708 2.742 -2 3 C-1.34 2.01 -0.68 1.02 0 0 Z " fill="#040200" transform="translate(143,31)"/>
</svg>