<svg xmlns="http://www.w3.org/2000/svg" width="20" height="20" fill="none"><path fill="#0582ca" d="M9.713 9.7.047 7.486a1.66 1.66 0 0 1 .398-.825L5.923.58a1.62 1.62 0 0 1 .93-.515z"/><path fill="#d94432" d="m9.671 9.732 9.614 2.432c-.06.3-.2.584-.416.815l-5.616 5.956a1.6 1.6 0 0 1-.68.43z"/><path fill="#0582ca" d="m9.72 9.7-5.735 6.403-.878.871a1.66 1.66 0 0 1-.635-.87l-2.4-7.828a1.6 1.6 0 0 1-.04-.796z"/><path fill="#e9b213" d="m9.663 9.732 5.88-6.272.897-.85c.293.215.513.524.616.884l2.22 7.88c.076.265.08.54.022.797z"/><path fill="#e9b213" d="M9.59 10.14 7.272 1.424 6.885.045c.26-.061.536-.062.804.009l8.035 2.122c.324.085.606.266.82.509z"/><path fill="#e9b213" d="m9.713 9.302 2.898 10.058a1.7 1.7 0 0 1-.816.04L3.94 17.456a1.65 1.65 0 0 1-.832-.483z"/><path fill="#1f2348" d="M17.827 11.082 15.93 4.351a1.4 1.4 0 0 0-1.003-.976L8.15 1.652a1.4 1.4 0 0 0-1.345.379L1.924 7.04c-.35.358-.48.873-.345 1.354l1.897 6.732c.135.481.517.852 1 .975l6.778 1.723c.484.123.997-.02 1.345-.38l4.882-5.008c.35-.358.481-.872.346-1.354"/></svg>