<svg xmlns="http://www.w3.org/2000/svg" fill="none" viewBox="0 0 346 346"><path fill="url(#a)" stroke="#000" stroke-width="10" d="M261 5H85C40.817 5 5 40.817 5 85v176c0 44.183 35.817 80 80 80h176c44.183 0 80-35.817 80-80V85c0-44.183-35.817-80-80-80Z"/><path fill="#000" d="M99 79v188Z"/><path stroke="#000" stroke-linecap="round" stroke-width="38" d="M99 79v188"/><path fill="#000" d="M247 79v188Z"/><path stroke="#000" stroke-linecap="round" stroke-width="38" d="M247 79v188"/><path fill="#000" d="m99 79 148 188Z"/><path stroke="#000" stroke-linecap="round" stroke-linejoin="round" stroke-width="38" d="m99 79 148 188"/><path fill="#000" d="M99 79v188Z"/><path stroke="#8b8bf5" stroke-linecap="round" stroke-width="18" d="M99 79v188"/><path fill="#000" d="M247 79v188Z"/><path stroke="#ff90e8" stroke-linecap="round" stroke-width="18" d="M247 79v188"/><path fill="#000" d="m99 79 148 188Z"/><path stroke="#ffc900" stroke-linecap="round" stroke-linejoin="round" stroke-width="18" d="m99 79 148 188"/><path fill="#8b8bf5" stroke="#000" stroke-width="5" d="M99 94c8.284 0 15-6.716 15-15s-6.716-15-15-15-15 6.716-15 15 6.716 15 15 15Zm0 188c8.284 0 15-6.716 15-15s-6.716-15-15-15-15 6.716-15 15 6.716 15 15 15Z"/><path fill="#ff90e8" stroke="#000" stroke-width="5" d="M247 94c8.284 0 15-6.716 15-15s-6.716-15-15-15-15 6.716-15 15 6.716 15 15 15Zm0 188c8.284 0 15-6.716 15-15s-6.716-15-15-15-15 6.716-15 15 6.716 15 15 15Z"/><path fill="#ffc900" stroke="#000" stroke-width="5" d="M173 191c9.941 0 18-8.059 18-18s-8.059-18-18-18-18 8.059-18 18 8.059 18 18 18Z"/><defs><linearGradient id="a" x1="125" x2="425" y1="95" y2="435" gradientUnits="userSpaceOnUse"><stop stop-color="#ff90e8"/><stop offset=".52" stop-color="#ffc900"/><stop offset="1" stop-color="#8b8bf5"/></linearGradient></defs></svg>