<svg xmlns="http://www.w3.org/2000/svg" viewBox="0 0 20 18" width="20" height="18" role="img" aria-label="NIMmesh"><path fill="url(#nimmesh-grad)" d="M19.964 8.156 15.758.844A1.69 1.69 0 0014.299 0H5.887c-.6 0-1.156.32-1.456.844L.225 8.156c-.3.523-.3 1.165 0 1.688l4.206 7.312c.3.523.856.844 1.456.844h8.412c.6 0 1.156-.32 1.456-.844l4.206-7.312a1.69 1.69 0 00.003-1.688"/><defs><radialGradient id="nimmesh-grad" cx="0" cy="0" r="1" gradientTransform="matrix(20.1956 0 0 20.2552 15.188 17.766)" gradientUnits="userSpaceOnUse"><stop stop-color="#41A38E"/><stop offset="1" stop-color="#21BCA5"/></radialGradient></defs><g transform="translate(4.6 3.9) scale(0.45)" fill="none"><circle cx="5" cy="18" r="2.4" fill="#fff"/><circle cx="19" cy="18" r="2.4" fill="#fff"/><circle cx="12" cy="5" r="2.4" fill="#fff"/><path d="M6.4 16.3 10.7 6.9M13.3 6.9l4.3 9.4M7.2 18h9.6" stroke="#fff" stroke-width="1.4" stroke-linecap="round"/></g></svg>
