<svg xmlns="http://www.w3.org/2000/svg" width="20" height="20" viewBox="0 0 20 20"><path fill="#2d527f" d="m19.734 9.156-4.158-7.312A1.66 1.66 0 0 0 14.135 1H5.819c-.593 0-1.142.32-1.439.844L.222 9.156a1.71 1.71 0 0 0 0 1.688l4.158 7.312c.297.523.846.844 1.439.844h8.316c.593 0 1.142-.32 1.438-.844l4.158-7.312c.3-.523.3-1.165.003-1.688"/><path fill="#3f6592" d="m17.54 9.4-3.26-5.74a.9.9 0 0 0-.78-.46H6.45a.9.9 0 0 0-.78.46L2.41 9.4a.94.94 0 0 0 0 .92l3.26 5.74a.9.9 0 0 0 .78.46h7.05a.9.9 0 0 0 .78-.46l3.26-5.74a.94.94 0 0 0 0-.92"/><path fill="#1f3f68" d="m19.731 10.844-4.158 7.312a1.65 1.65 0 0 1-1.438.844H5.819c-.593 0-1.142-.32-1.439-.844L.222 10.844A1.7 1.7 0 0 1 0 10h20c0 .292-.075.584-.269.844"/></svg>